<svg width="80" height="80" viewBox="0 0 80 80" fill="none" xmlns="http://www.w3.org/2000/svg">
<path d="M76.25 6.25H68.75V5C68.75 4.66848 68.6183 4.35054 68.3839 4.11612C68.1495 3.8817 67.8315 3.75 67.5 3.75C67.1685 3.75 66.8505 3.8817 66.6161 4.11612C66.3817 4.35054 66.25 4.66848 66.25 5V6.25H63.75V5C63.75 4.66848 63.6183 4.35054 63.3839 4.11612C63.1495 3.8817 62.8315 3.75 62.5 3.75C62.1685 3.75 61.8505 3.8817 61.6161 4.11612C61.3817 4.35054 61.25 4.66848 61.25 5V6.25H58.75V5C58.75 4.66848 58.6183 4.35054 58.3839 4.11612C58.1495 3.8817 57.8315 3.75 57.5 3.75C57.1685 3.75 56.8505 3.8817 56.6161 4.11612C56.3817 4.35054 56.25 4.66848 56.25 5V6.25H53.75V5C53.75 4.66848 53.6183 4.35054 53.3839 4.11612C53.1495 3.8817 52.8315 3.75 52.5 3.75C52.1685 3.75 51.8505 3.8817 51.6161 4.11612C51.3817 4.35054 51.25 4.66848 51.25 5V6.25H48.75V5C48.75 4.66848 48.6183 4.35054 48.3839 4.11612C48.1495 3.8817 47.8315 3.75 47.5 3.75C47.1685 3.75 46.8505 3.8817 46.6161 4.11612C46.3817 4.35054 46.25 4.66848 46.25 5V6.25H43.75V5C43.75 4.66848 43.6183 4.35054 43.3839 4.11612C43.1495 3.8817 42.8315 3.75 42.5 3.75C42.1685 3.75 41.8505 3.8817 41.6161 4.11612C41.3817 4.35054 41.25 4.66848 41.25 5V6.25H38.75V5C38.75 4.66848 38.6183 4.35054 38.3839 4.11612C38.1495 3.8817 37.8315 3.75 37.5 3.75C37.1685 3.75 36.8505 3.8817 36.6161 4.11612C36.3817 4.35054 36.25 4.66848 36.25 5V6.25H33.75V5C33.75 4.66848 33.6183 4.35054 33.3839 4.11612C33.1495 3.8817 32.8315 3.75 32.5 3.75C32.1685 3.75 31.8505 3.8817 31.6161 4.11612C31.3817 4.35054 31.25 4.66848 31.25 5V6.25H28.75V5C28.75 4.66848 28.6183 4.35054 28.3839 4.11612C28.1495 3.8817 27.8315 3.75 27.5 3.75C27.1685 3.75 26.8505 3.8817 26.6161 4.11612C26.3817 4.35054 26.25 4.66848 26.25 5V6.25H23.75V5C23.75 4.66848 23.6183 4.35054 23.3839 4.11612C23.1495 3.8817 22.8315 3.75 22.5 3.75C22.1685 3.75 21.8505 3.8817 21.6161 4.11612C21.3817 4.35054 21.25 4.66848 21.25 5V6.25H18.75V5C18.75 4.66848 18.6183 4.35054 18.3839 4.11612C18.1495 3.8817 17.8315 3.75 17.5 3.75C17.1685 3.75 16.8505 3.8817 16.6161 4.11612C16.3817 4.35054 16.25 4.66848 16.25 5V6.25H13.75V5C13.75 4.66848 13.6183 4.35054 13.3839 4.11612C13.1495 3.8817 12.8315 3.75 12.5 3.75C12.1685 3.75 11.8505 3.8817 11.6161 4.11612C11.3817 4.35054 11.25 4.66848 11.25 5V6.25H3.75C3.41848 6.25 3.10054 6.3817 2.86612 6.61612C2.6317 6.85054 2.5 7.16848 2.5 7.5V67.5C2.5 67.8315 2.6317 68.1495 2.86612 68.3839C3.10054 68.6183 3.41848 68.75 3.75 68.75H56.1619L62.5633 75.1516C62.9114 75.4998 63.3247 75.7761 63.7796 75.9645C64.2345 76.153 64.7221 76.25 65.2145 76.25C65.7068 76.25 66.1944 76.153 66.6493 75.9645C67.1042 75.7761 67.5175 75.4998 67.8656 75.1516L71.4016 71.6156C71.7509 71.2681 72.0278 70.8548 72.2164 70.3996C72.4049 69.9444 72.5013 69.4563 72.5 68.9636C72.5 68.892 72.4975 68.8209 72.4934 68.75H76.25C76.5815 68.75 76.8995 68.6183 77.1339 68.3839C77.3683 68.1495 77.5 67.8315 77.5 67.5V7.5C77.5 7.16848 77.3683 6.85054 77.1339 6.61612C76.8995 6.3817 76.5815 6.25 76.25 6.25ZM41.7578 45.508L44.998 46.7541L43.0041 48.7481L41.7578 45.508ZM51.4675 52.4725C51.7164 52.3895 51.9328 52.2303 52.0862 52.0175C52.2395 51.8046 52.3221 51.5489 52.322 51.2866V50.7681L63.447 61.8931L61.6787 63.6609L50.7344 52.7167L51.4675 52.4725ZM65.2147 63.66L66.9823 65.4275L61.6791 70.7308L59.9116 68.9631L65.2147 63.66ZM49.822 50.385L48.0252 50.9839C47.8411 51.0453 47.6738 51.1487 47.5366 51.2859C47.3994 51.4231 47.296 51.5904 47.2347 51.7745L46.6358 53.5714H44.8594L43.9859 51.3008L47.5513 47.7355L49.8219 48.6089L49.822 50.385ZM47.5366 56.0712C47.7989 56.0713 48.0546 55.9887 48.2675 55.8353C48.4803 55.6819 48.6395 55.4655 48.7225 55.2166L48.9667 54.4838L59.9109 65.428L58.1436 67.1953L47.0197 56.0712H47.5366ZM69.6336 69.8469L66.097 73.3844C65.9811 73.5003 65.8434 73.5923 65.6919 73.655C65.5404 73.7178 65.378 73.75 65.2141 73.7499C65.0501 73.7499 64.8877 73.7175 64.7363 73.6546C64.5848 73.5918 64.4472 73.4997 64.3314 73.3836L63.447 72.5L68.75 67.1963L69.6334 68.0797C69.7495 68.1958 69.8416 68.3336 69.9045 68.4853C69.9673 68.6369 69.9997 68.7995 69.9997 68.9637C69.9997 69.1278 69.9673 69.2904 69.9045 69.4421C69.8416 69.5938 69.7495 69.7316 69.6334 69.8477L69.6336 69.8469ZM75 66.25H71.3397L51.9562 46.8664L51.9539 46.8686C51.8311 46.7445 51.6835 46.6477 51.5208 46.5844L40.0303 42.1648C39.8046 42.078 39.5586 42.0585 39.322 42.1087C39.0855 42.1589 38.8686 42.2766 38.6976 42.4476C38.5266 42.6186 38.4089 42.8355 38.3587 43.0721C38.3085 43.3086 38.328 43.5546 38.4148 43.7803L39.3648 46.25H13.75C13.4186 46.2496 13.1009 46.1178 12.8665 45.8835C12.6322 45.6491 12.5004 45.3314 12.5 45V40C12.5026 37.6802 13.4253 35.4561 15.0657 33.8157C16.7061 32.1753 18.9302 31.2526 21.25 31.25H52.5C53.9407 31.2481 55.3367 30.7495 56.4525 29.838C57.5683 28.9266 58.3356 27.6582 58.625 26.2469C58.6667 26.2477 58.7081 26.25 58.75 26.25C59.0815 26.25 59.3995 26.1183 59.6339 25.8839C59.8683 25.6495 60 25.3315 60 25C60 24.6685 59.8683 24.3505 59.6339 24.1161C59.3995 23.8817 59.0815 23.75 58.75 23.75C57.7558 23.7488 56.8026 23.3534 56.0996 22.6504C55.3966 21.9474 55.0012 20.9942 55 20V18.75H58.2323L60.3661 20.8839C60.4822 21 60.62 21.0921 60.7716 21.1549C60.9233 21.2177 61.0858 21.25 61.25 21.25C61.4142 21.25 61.5767 21.2177 61.7284 21.1549C61.88 21.0921 62.0178 21 62.1339 20.8839L64.2677 18.75H67.5V20C67.4988 20.9942 67.1034 21.9474 66.4004 22.6504C65.6974 23.3534 64.7442 23.7488 63.75 23.75C63.4185 23.75 63.1005 23.8817 62.8661 24.1161C62.6317 24.3505 62.5 24.6685 62.5 25C62.5 25.3315 62.6317 25.6495 62.8661 25.8839C63.1005 26.1183 63.4185 26.25 63.75 26.25V31.25C63.75 35.5692 61.7922 40.432 59.0938 42.8125C58.8451 43.0319 58.6938 43.3411 58.6731 43.672C58.6524 44.0029 58.7641 44.3285 58.9834 44.5772C59.2028 44.8258 59.512 44.9771 59.8429 44.9978C60.1739 45.0185 60.4995 44.9069 60.7481 44.6875C63.9878 41.8281 66.25 36.303 66.25 31.25V25.7266C67.3637 25.2394 68.3114 24.4384 68.9773 23.4214C69.6433 22.4045 69.9986 21.2156 70 20V17.5C70 17.1685 69.8683 16.8505 69.6339 16.6161C69.3995 16.3817 69.0815 16.25 68.75 16.25H63.75C63.5858 16.25 63.4233 16.2823 63.2716 16.3451C63.12 16.408 62.9822 16.5 62.8661 16.6161L61.25 18.2323L59.6339 16.6161C59.5178 16.5 59.38 16.408 59.2284 16.3451C59.0767 16.2823 58.9142 16.25 58.75 16.25H53.75C53.4185 16.25 53.1005 16.3817 52.8661 16.6161C52.6317 16.8505 52.5 17.1685 52.5 17.5V20C52.5014 21.2032 52.8496 22.3806 53.503 23.3909C54.1564 24.4013 55.0873 25.2019 56.1841 25.6967C56.0207 26.5546 55.5635 27.3287 54.8912 27.886C54.2188 28.4432 53.3733 28.7487 52.5 28.75H41.875L38.5 24.25C38.3836 24.0948 38.2326 23.9688 38.059 23.882C37.8854 23.7952 37.6941 23.75 37.5 23.75C37.3059 23.75 37.1146 23.7952 36.941 23.882C36.7674 23.9688 36.6164 24.0948 36.5 24.25L33.125 28.75H21.25C18.2673 28.7533 15.4078 29.9397 13.2987 32.0487C11.1897 34.1578 10.0033 37.0173 10 40V45C10.0011 45.9942 10.3966 46.9474 11.0996 47.6504C11.8026 48.3534 12.7558 48.7489 13.75 48.75H22.5V50C22.5019 51.657 23.1609 53.2457 24.3326 54.4174C25.5043 55.5891 27.093 56.2481 28.75 56.25H31.25C31.5815 56.25 31.8995 56.1183 32.1339 55.8839C32.3683 55.6495 32.5 55.3315 32.5 55V48.75H40.3263L42.8344 55.2708C42.8978 55.4339 42.9949 55.5817 43.1194 55.7047L43.118 55.7062L53.6619 66.25H5V8.75H11.25V10C11.25 10.3315 11.3817 10.6495 11.6161 10.8839C11.8505 11.1183 12.1685 11.25 12.5 11.25C12.8315 11.25 13.1495 11.1183 13.3839 10.8839C13.6183 10.6495 13.75 10.3315 13.75 10V8.75H16.25V10C16.25 10.3315 16.3817 10.6495 16.6161 10.8839C16.8505 11.1183 17.1685 11.25 17.5 11.25C17.8315 11.25 18.1495 11.1183 18.3839 10.8839C18.6183 10.6495 18.75 10.3315 18.75 10V8.75H21.25V10C21.25 10.3315 21.3817 10.6495 21.6161 10.8839C21.8505 11.1183 22.1685 11.25 22.5 11.25C22.8315 11.25 23.1495 11.1183 23.3839 10.8839C23.6183 10.6495 23.75 10.3315 23.75 10V8.75H26.25V10C26.25 10.3315 26.3817 10.6495 26.6161 10.8839C26.8505 11.1183 27.1685 11.25 27.5 11.25C27.8315 11.25 28.1495 11.1183 28.3839 10.8839C28.6183 10.6495 28.75 10.3315 28.75 10V8.75H31.25V10C31.25 10.3315 31.3817 10.6495 31.6161 10.8839C31.8505 11.1183 32.1685 11.25 32.5 11.25C32.8315 11.25 33.1495 11.1183 33.3839 10.8839C33.6183 10.6495 33.75 10.3315 33.75 10V8.75H36.25V10C36.25 10.3315 36.3817 10.6495 36.6161 10.8839C36.8505 11.1183 37.1685 11.25 37.5 11.25C37.8315 11.25 38.1495 11.1183 38.3839 10.8839C38.6183 10.6495 38.75 10.3315 38.75 10V8.75H41.25V10C41.25 10.3315 41.3817 10.6495 41.6161 10.8839C41.8505 11.1183 42.1685 11.25 42.5 11.25C42.8315 11.25 43.1495 11.1183 43.3839 10.8839C43.6183 10.6495 43.75 10.3315 43.75 10V8.75H46.25V10C46.25 10.3315 46.3817 10.6495 46.6161 10.8839C46.8505 11.1183 47.1685 11.25 47.5 11.25C47.8315 11.25 48.1495 11.1183 48.3839 10.8839C48.6183 10.6495 48.75 10.3315 48.75 10V8.75H51.25V10C51.25 10.3315 51.3817 10.6495 51.6161 10.8839C51.8505 11.1183 52.1685 11.25 52.5 11.25C52.8315 11.25 53.1495 11.1183 53.3839 10.8839C53.6183 10.6495 53.75 10.3315 53.75 10V8.75H56.25V10C56.25 10.3315 56.3817 10.6495 56.6161 10.8839C56.8505 11.1183 57.1685 11.25 57.5 11.25C57.8315 11.25 58.1495 11.1183 58.3839 10.8839C58.6183 10.6495 58.75 10.3315 58.75 10V8.75H61.25V10C61.25 10.3315 61.3817 10.6495 61.6161 10.8839C61.8505 11.1183 62.1685 11.25 62.5 11.25C62.8315 11.25 63.1495 11.1183 63.3839 10.8839C63.6183 10.6495 63.75 10.3315 63.75 10V8.75H66.25V10C66.25 10.3315 66.3817 10.6495 66.6161 10.8839C66.8505 11.1183 67.1685 11.25 67.5 11.25C67.8315 11.25 68.1495 11.1183 68.3839 10.8839C68.6183 10.6495 68.75 10.3315 68.75 10V8.75H75V66.25ZM25 48.75H30V53.75H28.75C27.7558 53.7489 26.8026 53.3534 26.0996 52.6504C25.3966 51.9474 25.0011 50.9942 25 50V48.75ZM36.25 28.75L37.5 27.0833L38.75 28.75H36.25Z" fill="url(#paint0_linear)"/>
<path d="M20 41.25C20.6904 41.25 21.25 40.6904 21.25 40C21.25 39.3096 20.6904 38.75 20 38.75C19.3096 38.75 18.75 39.3096 18.75 40C18.75 40.6904 19.3096 41.25 20 41.25Z" fill="url(#paint1_linear)"/>
<defs>
<linearGradient id="paint0_linear" x1="2.5" y1="40.3898" x2="80.4661" y2="39.3066" gradientUnits="userSpaceOnUse">
<stop stop-color="#FCAF45"/>
<stop offset="0.197917" stop-color="#F77737"/>
<stop offset="0.395833" stop-color="#FD1D1D"/>
<stop offset="0.59375" stop-color="#C13584"/>
<stop offset="0.796875" stop-color="#833AB4"/>
<stop offset="1" stop-color="#405DE6"/>
</linearGradient>
<linearGradient id="paint1_linear" x1="18.75" y1="40.0134" x2="21.3489" y2="39.9785" gradientUnits="userSpaceOnUse">
<stop stop-color="#FCAF45"/>
<stop offset="0.197917" stop-color="#F77737"/>
<stop offset="0.395833" stop-color="#FD1D1D"/>
<stop offset="0.59375" stop-color="#C13584"/>
<stop offset="0.796875" stop-color="#833AB4"/>
<stop offset="1" stop-color="#405DE6"/>
</linearGradient>
</defs>
</svg>
