<svg width="56" height="56" viewBox="0 0 56 56" fill="none" xmlns="http://www.w3.org/2000/svg"><g clip-path="url(#clip0)"><path d="M55.2 54.995a1.084 1.084 0 01-1.928.596s-3.316-4.075-8.15-3.804c-3.792.206-5.417-4.562-6.002-7.097a1.085 1.085 0 01-.39-.163l-6.036-4.194a1.084 1.084 0 01-.152-1.658l.227-.227C27.557 33.972 2.027 11.443.726 1.225A1.083 1.083 0 011.81 0h.13c10.219 1.3 32.747 26.842 37.245 32.032l.227-.227c.205-.203.482-.316.77-.314h.097c.333.015.641.183.834.455l4.194 6.036c.148.215.214.477.184.737a10.294 10.294 0 015.939 2.633c2.925 2.774 4.204 7.369 3.77 13.643zM3.263 2.547C6.708 12.667 29.8 33.029 34.297 36.92l3.349-3.349C33.745 29.085 13.383 6.003 3.262 2.547zM40.03 34.265l-5.05 5.05 4.226 2.925 3.75-3.792-2.926-4.183zm9.893 8.712a8.67 8.67 0 00-6.252-2.167l-2.623 2.622c.412 2.114 1.68 6.35 3.934 6.199a11.985 11.985 0 018.117 2.828c0-4.334-1.084-7.531-3.176-9.482z" fill="url(#paint0_linear)"/></g><defs><linearGradient id="paint0_linear" x1=".717" y1="27.699" x2="57.442" y2="28.441" gradientUnits="userSpaceOnUse"><stop stop-color="#FCAF45"/><stop offset=".198" stop-color="#F77737"/><stop offset=".396" stop-color="#FD1D1D"/><stop offset=".594" stop-color="#C13584"/><stop offset=".797" stop-color="#833AB4"/><stop offset="1" stop-color="#405DE6"/></linearGradient><clipPath id="clip0"><path fill="#fff" transform="matrix(1 0 0 -1 0 56)" d="M0 0h56v56H0z"/></clipPath></defs></svg>