<svg width="56" height="56" viewBox="0 0 56 56" fill="none" xmlns="http://www.w3.org/2000/svg"><path d="M42.767 27.503h3.907c.883 0 1.601-.719 1.601-1.602v-3.906c0-.883-.718-1.602-1.601-1.602h-3.907c-.883 0-1.601.719-1.601 1.602v3.906c0 .883.718 1.602 1.602 1.602zm.04-5.469h3.828v3.828h-3.828v-3.828zm-.04 15.86h3.907c.883 0 1.601-.72 1.601-1.602v-3.906c0-.884-.718-1.602-1.601-1.602h-3.907c-.883 0-1.601.719-1.601 1.602v3.906c0 .883.718 1.601 1.602 1.601zm.04-5.47h3.828v3.829h-3.828v-3.828zm-11.187-4.92h3.907c.883 0 1.601-.719 1.601-1.602v-3.906c0-.883-.718-1.602-1.601-1.602H31.62c-.883 0-1.601.719-1.601 1.602v3.906c0 .883.718 1.602 1.601 1.602zm.04-5.469h3.828v3.828H31.66v-3.828zM13.233 40.688H9.326c-.883 0-1.601.718-1.601 1.601v3.906c0 .883.718 1.602 1.601 1.602h3.906c.884 0 1.602-.719 1.602-1.602V42.29c0-.883-.718-1.602-1.601-1.602zm-.04 5.468H9.366v-3.828h3.829v3.828zm.04-25.763H9.325c-.883 0-1.601.719-1.601 1.602v3.906c0 .883.718 1.602 1.601 1.602h3.906c.884 0 1.602-.719 1.602-1.602v-3.906c0-.883-.718-1.602-1.601-1.602zm-.04 5.47H9.366v-3.829h3.829v3.828zM31.62 37.65h3.907c.883 0 1.601-.719 1.601-1.602v-3.906c0-.883-.718-1.602-1.601-1.602H31.62c-.883 0-1.601.719-1.601 1.602v3.906c0 .883.718 1.602 1.601 1.602zm.04-5.469h3.828v3.828H31.66v-3.828zM49.09 3.75h-3.507V2.495A2.497 2.497 0 0043.088 0h-.376a2.497 2.497 0 00-2.495 2.495v1.254H15.783V2.495A2.497 2.497 0 0013.288 0h-.376a2.497 2.497 0 00-2.495 2.495v1.254H6.91a4.112 4.112 0 00-4.107 4.107v44.042A4.106 4.106 0 006.905 56h42.19a4.106 4.106 0 004.102-4.102V7.856a4.112 4.112 0 00-4.107-4.107zm-7.232-1.254c0-.471.383-.854.854-.854h.376c.471 0 .854.383.854.854V3.75h-2.084V2.495zm-29.8 0c0-.471.383-.854.854-.854h.376c.471 0 .854.383.854.854V3.75h-2.084V2.495zm39.499 49.403a2.464 2.464 0 01-2.461 2.461H6.904a2.464 2.464 0 01-2.46-2.46v-.006a4.086 4.086 0 002.466.826h33.26a4.08 4.08 0 002.903-1.203l8.484-8.484v8.866zm-9.32-1.865c.063-.266.099-.543.099-.828V43.73c0-1.033.84-1.873 1.872-1.873h5.476c.285 0 .562-.035.827-.1l-8.275 8.276zm9.32-34.562H16.603a.82.82 0 100 1.641h34.954v21.232c0 1.032-.84 1.873-1.873 1.873h-5.476a3.517 3.517 0 00-3.513 3.513v5.476c0 1.032-.84 1.872-1.873 1.872H6.91a2.47 2.47 0 01-2.466-2.466v-31.5h8.878a.82.82 0 000-1.64H4.443V7.856A2.47 2.47 0 016.91 5.389h3.507v2.412a2.497 2.497 0 002.495 2.495.82.82 0 100-1.64.855.855 0 01-.854-.855V5.39h28.16v2.412a2.497 2.497 0 002.494 2.495.82.82 0 100-1.64.855.855 0 01-.854-.855V5.39h7.232a2.47 2.47 0 012.467 2.467v7.616zm-38.325 15.07H9.327c-.883 0-1.601.718-1.601 1.601v3.906c0 .883.718 1.602 1.601 1.602h3.906c.884 0 1.602-.719 1.602-1.602v-3.906c0-.883-.718-1.602-1.601-1.602zm-.038 5.468h-3.83v-3.828h3.829v3.828zm7.28-8.506h3.906c.883 0 1.601-.719 1.601-1.602v-3.906c0-.883-.718-1.602-1.601-1.602h-3.907c-.883 0-1.601.719-1.601 1.602v3.906c0 .883.718 1.602 1.601 1.602zm.038-5.469h3.829v3.828h-3.829v-3.828zm11.146 24.122a.82.82 0 00-1.64.04c0 .882.72 1.6 1.602 1.6h3.907c.883 0 1.601-.718 1.601-1.6V42.29c0-.883-.718-1.602-1.601-1.602H31.62c-.883 0-1.601.719-1.601 1.602v1.127a.82.82 0 101.64 0v-1.088h3.828v3.828h-3.829zM20.474 37.65h3.907c.883 0 1.601-.719 1.601-1.602v-3.906c0-.883-.718-1.602-1.601-1.602h-3.907c-.883 0-1.601.719-1.601 1.602v3.906c0 .883.718 1.602 1.601 1.602zm.04-5.469h3.828v3.828h-3.829v-3.828zm-.04 15.616h3.907c.883 0 1.601-.719 1.601-1.602V42.29c0-.883-.718-1.602-1.601-1.602h-3.907c-.883 0-1.601.719-1.601 1.602v3.906c0 .883.718 1.602 1.601 1.602zm.04-5.469h3.828v3.828h-3.829v-3.828z" fill="url(#paint0_linear)"/><defs><linearGradient id="paint0_linear" x1="2.803" y1="28.301" x2="55.193" y2="27.668" gradientUnits="userSpaceOnUse"><stop stop-color="#FCAF45"/><stop offset=".198" stop-color="#F77737"/><stop offset=".396" stop-color="#FD1D1D"/><stop offset=".594" stop-color="#C13584"/><stop offset=".797" stop-color="#833AB4"/><stop offset="1" stop-color="#405DE6"/></linearGradient></defs></svg>