<svg width="56" height="56" viewBox="0 0 56 56" fill="none" xmlns="http://www.w3.org/2000/svg"><g clip-path="url(#clip0)"><path d="M45.685 22.805a.933.933 0 00-.746-.626l-11.116-1.7-4.978-10.61a.933.933 0 00-1.69 0l-4.98 10.61-11.115 1.7a.933.933 0 00-.528 1.573l8.072 8.272-1.908 11.692a.933.933 0 001.372.967L28 39.193l9.933 5.49a.933.933 0 001.372-.967l-1.908-11.692 8.072-8.272a.934.934 0 00.216-.947zm-9.953 8.253a.934.934 0 00-.253.802l1.675 10.26-8.703-4.81a.933.933 0 00-.901 0l-8.703 4.81 1.675-10.26a.933.933 0 00-.253-.802l-7.132-7.31 9.813-1.498a.933.933 0 00.704-.527L28 12.463l4.347 9.26c.132.282.396.48.704.527l9.813 1.498-7.132 7.31z" fill="url(#paint0_linear)"/><path d="M8.4 8.4a2.8 2.8 0 01-2.8-2.8.933.933 0 00-1.867 0 2.8 2.8 0 01-2.8 2.8.933.933 0 000 1.867 2.8 2.8 0 012.8 2.8.933.933 0 001.867 0 2.8 2.8 0 012.8-2.8.933.933 0 000-1.867zm-3.733 1.867a4.685 4.685 0 00-.934-.934c.354-.265.668-.58.934-.933.265.354.58.668.933.933-.354.266-.668.58-.933.934z" fill="url(#paint1_linear)"/><path d="M14.934 0h-1.866v1.867h1.867V0z" fill="url(#paint2_linear)"/><path d="M14.934 3.734h-1.866V5.6h1.867V3.734z" fill="url(#paint3_linear)"/><path d="M13.066 1.867H11.2v1.866h1.867V1.867z" fill="url(#paint4_linear)"/><path d="M16.799 1.867h-1.867v1.866H16.8V1.867z" fill="url(#paint5_linear)"/><path d="M55.066 45.733a2.8 2.8 0 01-2.8-2.8.933.933 0 00-1.866 0 2.8 2.8 0 01-2.8 2.8.933.933 0 000 1.867 2.8 2.8 0 012.8 2.8.933.933 0 001.867 0 2.8 2.8 0 012.8-2.8.933.933 0 000-1.867zM51.334 47.6a4.685 4.685 0 00-.933-.933c.354-.266.668-.58.933-.934.266.354.58.668.934.934-.354.265-.668.58-.934.933z" fill="url(#paint6_linear)"/><path d="M16.8 48.533a2.8 2.8 0 01-2.8-2.8.933.933 0 00-1.867 0 2.8 2.8 0 01-2.8 2.8.933.933 0 000 1.867 2.8 2.8 0 012.8 2.8.933.933 0 001.866 0 2.8 2.8 0 012.8-2.8.933.933 0 000-1.867zM13.065 50.4a4.684 4.684 0 00-.934-.933c.354-.266.668-.58.934-.934.265.354.58.668.933.934-.353.265-.668.58-.933.933z" fill="url(#paint7_linear)"/><path d="M47.6 7.467a2.8 2.8 0 01-2.8-2.8.933.933 0 00-1.867 0 2.8 2.8 0 01-2.8 2.8.933.933 0 000 1.867 2.8 2.8 0 012.8 2.8.933.933 0 001.867 0 2.8 2.8 0 012.8-2.8.933.933 0 000-1.867zm-3.734 1.867a4.685 4.685 0 00-.933-.934c.353-.265.668-.58.933-.933.266.354.58.668.934.933-.354.266-.668.58-.934.934z" fill="url(#paint8_linear)"/><path d="M42.934 54.133h-1.866V56h1.867v-1.867z" fill="url(#paint9_linear)"/><path d="M42.934 50.4h-1.866v1.867h1.867V50.4z" fill="url(#paint10_linear)"/><path d="M44.799 52.267h-1.867v1.866H44.8v-1.866z" fill="url(#paint11_linear)"/><path d="M41.066 52.267H39.2v1.866h1.867v-1.866z" fill="url(#paint12_linear)"/><path d="M5.6 34.533H3.731V36.4H5.6v-1.867z" fill="url(#paint13_linear)"/><path d="M9.334 36.4H7.467v1.867h1.867V36.4z" fill="url(#paint14_linear)"/><path d="M50.4 15.867h-1.867v1.866H50.4v-1.867z" fill="url(#paint15_linear)"/><path d="M54.134 17.734h-1.866V19.6h1.866v-1.866z" fill="url(#paint16_linear)"/></g><defs><linearGradient id="paint0_linear" x1="10.268" y1="27.257" x2="47.137" y2="26.762" gradientUnits="userSpaceOnUse"><stop stop-color="#FCAF45"/><stop offset=".198" stop-color="#F77737"/><stop offset=".396" stop-color="#FD1D1D"/><stop offset=".594" stop-color="#C13584"/><stop offset=".797" stop-color="#833AB4"/><stop offset="1" stop-color="#405DE6"/></linearGradient><linearGradient id="paint1_linear" x1="0" y1="9.384" x2="9.703" y2="9.253" gradientUnits="userSpaceOnUse"><stop stop-color="#FCAF45"/><stop offset=".198" stop-color="#F77737"/><stop offset=".396" stop-color="#FD1D1D"/><stop offset=".594" stop-color="#C13584"/><stop offset=".797" stop-color="#833AB4"/><stop offset="1" stop-color="#405DE6"/></linearGradient><linearGradient id="paint2_linear" x1="13.068" y1=".943" x2="15.008" y2=".917" gradientUnits="userSpaceOnUse"><stop stop-color="#FCAF45"/><stop offset=".198" stop-color="#F77737"/><stop offset=".396" stop-color="#FD1D1D"/><stop offset=".594" stop-color="#C13584"/><stop offset=".797" stop-color="#833AB4"/><stop offset="1" stop-color="#405DE6"/></linearGradient><linearGradient id="paint3_linear" x1="13.068" y1="4.677" x2="15.008" y2="4.651" gradientUnits="userSpaceOnUse"><stop stop-color="#FCAF45"/><stop offset=".198" stop-color="#F77737"/><stop offset=".396" stop-color="#FD1D1D"/><stop offset=".594" stop-color="#C13584"/><stop offset=".797" stop-color="#833AB4"/><stop offset="1" stop-color="#405DE6"/></linearGradient><linearGradient id="paint4_linear" x1="11.2" y1="2.81" x2="13.14" y2="2.784" gradientUnits="userSpaceOnUse"><stop stop-color="#FCAF45"/><stop offset=".198" stop-color="#F77737"/><stop offset=".396" stop-color="#FD1D1D"/><stop offset=".594" stop-color="#C13584"/><stop offset=".797" stop-color="#833AB4"/><stop offset="1" stop-color="#405DE6"/></linearGradient><linearGradient id="paint5_linear" x1="14.932" y1="2.81" x2="16.873" y2="2.784" gradientUnits="userSpaceOnUse"><stop stop-color="#FCAF45"/><stop offset=".198" stop-color="#F77737"/><stop offset=".396" stop-color="#FD1D1D"/><stop offset=".594" stop-color="#C13584"/><stop offset=".797" stop-color="#833AB4"/><stop offset="1" stop-color="#405DE6"/></linearGradient><linearGradient id="paint6_linear" x1="46.666" y1="46.717" x2="56.369" y2="46.587" gradientUnits="userSpaceOnUse"><stop stop-color="#FCAF45"/><stop offset=".198" stop-color="#F77737"/><stop offset=".396" stop-color="#FD1D1D"/><stop offset=".594" stop-color="#C13584"/><stop offset=".797" stop-color="#833AB4"/><stop offset="1" stop-color="#405DE6"/></linearGradient><linearGradient id="paint7_linear" x1="8.399" y1="49.517" x2="18.102" y2="49.386" gradientUnits="userSpaceOnUse"><stop stop-color="#FCAF45"/><stop offset=".198" stop-color="#F77737"/><stop offset=".396" stop-color="#FD1D1D"/><stop offset=".594" stop-color="#C13584"/><stop offset=".797" stop-color="#833AB4"/><stop offset="1" stop-color="#405DE6"/></linearGradient><linearGradient id="paint8_linear" x1="39.2" y1="8.45" x2="48.902" y2="8.32" gradientUnits="userSpaceOnUse"><stop stop-color="#FCAF45"/><stop offset=".198" stop-color="#F77737"/><stop offset=".396" stop-color="#FD1D1D"/><stop offset=".594" stop-color="#C13584"/><stop offset=".797" stop-color="#833AB4"/><stop offset="1" stop-color="#405DE6"/></linearGradient><linearGradient id="paint9_linear" x1="41.068" y1="55.077" x2="43.008" y2="55.051" gradientUnits="userSpaceOnUse"><stop stop-color="#FCAF45"/><stop offset=".198" stop-color="#F77737"/><stop offset=".396" stop-color="#FD1D1D"/><stop offset=".594" stop-color="#C13584"/><stop offset=".797" stop-color="#833AB4"/><stop offset="1" stop-color="#405DE6"/></linearGradient><linearGradient id="paint10_linear" x1="41.068" y1="51.343" x2="43.008" y2="51.317" gradientUnits="userSpaceOnUse"><stop stop-color="#FCAF45"/><stop offset=".198" stop-color="#F77737"/><stop offset=".396" stop-color="#FD1D1D"/><stop offset=".594" stop-color="#C13584"/><stop offset=".797" stop-color="#833AB4"/><stop offset="1" stop-color="#405DE6"/></linearGradient><linearGradient id="paint11_linear" x1="42.932" y1="53.21" x2="44.873" y2="53.184" gradientUnits="userSpaceOnUse"><stop stop-color="#FCAF45"/><stop offset=".198" stop-color="#F77737"/><stop offset=".396" stop-color="#FD1D1D"/><stop offset=".594" stop-color="#C13584"/><stop offset=".797" stop-color="#833AB4"/><stop offset="1" stop-color="#405DE6"/></linearGradient><linearGradient id="paint12_linear" x1="39.2" y1="53.21" x2="41.14" y2="53.184" gradientUnits="userSpaceOnUse"><stop stop-color="#FCAF45"/><stop offset=".198" stop-color="#F77737"/><stop offset=".396" stop-color="#FD1D1D"/><stop offset=".594" stop-color="#C13584"/><stop offset=".797" stop-color="#833AB4"/><stop offset="1" stop-color="#405DE6"/></linearGradient><linearGradient id="paint13_linear" x1="3.732" y1="35.477" x2="5.673" y2="35.451" gradientUnits="userSpaceOnUse"><stop stop-color="#FCAF45"/><stop offset=".198" stop-color="#F77737"/><stop offset=".396" stop-color="#FD1D1D"/><stop offset=".594" stop-color="#C13584"/><stop offset=".797" stop-color="#833AB4"/><stop offset="1" stop-color="#405DE6"/></linearGradient><linearGradient id="paint14_linear" x1="7.467" y1="37.343" x2="9.408" y2="37.317" gradientUnits="userSpaceOnUse"><stop stop-color="#FCAF45"/><stop offset=".198" stop-color="#F77737"/><stop offset=".396" stop-color="#FD1D1D"/><stop offset=".594" stop-color="#C13584"/><stop offset=".797" stop-color="#833AB4"/><stop offset="1" stop-color="#405DE6"/></linearGradient><linearGradient id="paint15_linear" x1="48.533" y1="16.81" x2="50.474" y2="16.784" gradientUnits="userSpaceOnUse"><stop stop-color="#FCAF45"/><stop offset=".198" stop-color="#F77737"/><stop offset=".396" stop-color="#FD1D1D"/><stop offset=".594" stop-color="#C13584"/><stop offset=".797" stop-color="#833AB4"/><stop offset="1" stop-color="#405DE6"/></linearGradient><linearGradient id="paint16_linear" x1="52.268" y1="18.677" x2="54.208" y2="18.651" gradientUnits="userSpaceOnUse"><stop stop-color="#FCAF45"/><stop offset=".198" stop-color="#F77737"/><stop offset=".396" stop-color="#FD1D1D"/><stop offset=".594" stop-color="#C13584"/><stop offset=".797" stop-color="#833AB4"/><stop offset="1" stop-color="#405DE6"/></linearGradient><clipPath id="clip0"><path fill="#fff" d="M0 0h56v56H0z"/></clipPath></defs></svg>