<svg width="56" height="56" viewBox="0 0 56 56" fill="none" xmlns="http://www.w3.org/2000/svg"><g clip-path="url(#clip0)"><path d="M54.9 41.603a9.881 9.881 0 00-7.033-2.913 9.87 9.87 0 00-6.406 2.337c-3.904-3.29-9.763-3.099-13.438.576a.824.824 0 00-.242.584c0 7.543 6.137 13.68 13.68 13.68 7.544 0 13.68-6.137 13.68-13.68a.825.825 0 00-.241-.584zm-14.236.92a.825.825 0 00.753.488h.088a.825.825 0 00.754-.489 8.237 8.237 0 015.608-2.182c1.888 0 3.678.628 5.136 1.782-6.533 5.992-16.61 6.016-23.17.07 3.164-2.568 7.793-2.46 10.831.33zm.797 11.694c-5.964 0-10.927-4.362-11.869-10.064a18.81 18.81 0 0011.788 4.13c4.255 0 8.509-1.428 11.975-4.282-.877 5.776-5.877 10.216-11.894 10.216z" fill="url(#paint0_linear)"/><path d="M21.67 24.488a.825.825 0 00-.816-.015c-.147.08-3.633 1.996-7.503 6-3.572 3.696-8.14 9.94-9.614 18.699A5.839 5.839 0 005.04 53.92 5.859 5.859 0 009.522 56h7.46a5.096 5.096 0 005.09-5.09V25.197c0-.29-.153-.56-.403-.709zM20.422 50.91a3.445 3.445 0 01-3.44 3.44H9.521a4.212 4.212 0 01-4.159-4.904c1.401-8.318 5.74-14.262 9.133-17.784 2.36-2.449 4.603-4.102 5.927-4.983v24.23z" fill="url(#paint1_linear)"/><path d="M13.197 48.95c-2.108 0-4.236.628-4.236 2.029a.825.825 0 001.636.15c.244-.199 1.184-.529 2.6-.529 1.417 0 2.356.33 2.6.529a.825.825 0 001.636-.15c0-1.401-2.127-2.028-4.236-2.028z" fill="url(#paint2_linear)"/><path d="M29.935 12.889c-.203-.29-3.986-5.616-9.369-8.017l1.43-3.07a.825.825 0 10-1.496-.696l-1.479 3.178a12.259 12.259 0 00-2.336-.5V.825a.825.825 0 10-1.65 0v2.902c-.83.033-1.641.16-2.428.361l-1.387-2.98a.825.825 0 00-1.496.695L11.027 4.6C5.3 6.84 1.218 12.587 1.007 12.89a.825.825 0 000 .945c.263.375 6.511 9.173 14.464 9.173s14.202-8.798 14.464-9.173a.825.825 0 000-.945zM11.032 6.392c1.392-.626 2.888-1.027 4.44-1.027 1.551 0 3.049.403 4.443 1.031a6.158 6.158 0 011.757 4.323 6.16 6.16 0 01-1.816 4.384 6.16 6.16 0 01-4.385 1.816 6.16 6.16 0 01-4.384-1.816 6.207 6.207 0 01-.055-8.711zm4.44 14.966c-6.104 0-11.372-6.214-12.758-7.997.765-.987 2.716-3.326 5.34-5.222a7.86 7.86 0 00-.433 2.58c0 2.097.817 4.068 2.3 5.55a7.798 7.798 0 005.55 2.3 7.799 7.799 0 005.551-2.3 7.798 7.798 0 002.3-5.55 7.86 7.86 0 00-.432-2.574c2.621 1.894 4.572 4.23 5.338 5.217-1.387 1.784-6.654 7.996-12.757 7.996z" fill="url(#paint3_linear)"/><path d="M15.471 6.604a3.791 3.791 0 00-3.787 3.787 3.791 3.791 0 003.787 3.787 3.791 3.791 0 003.787-3.787 3.791 3.791 0 00-3.787-3.787zm0 5.924a2.14 2.14 0 01-2.137-2.137 2.14 2.14 0 012.137-2.137 2.14 2.14 0 012.137 2.137 2.14 2.14 0 01-2.137 2.137z" fill="url(#paint4_linear)"/><path d="M44.384 18.583a3.791 3.791 0 00-3.786 3.787 3.791 3.791 0 003.786 3.787 3.791 3.791 0 003.787-3.787 3.791 3.791 0 00-3.787-3.787zm0 5.924a2.14 2.14 0 01-2.137-2.137 2.14 2.14 0 012.137-2.137 2.14 2.14 0 012.138 2.137 2.14 2.14 0 01-2.138 2.137z" fill="url(#paint5_linear)"/><path d="M53.95 23.583a.825.825 0 100-1.65h-2.9a11.67 11.67 0 00-.362-2.427l2.981-1.388a.825.825 0 10-.696-1.495l-2.797 1.302c-2.24-5.726-7.988-9.808-8.289-10.019a.825.825 0 00-.946 0c-.374.262-9.172 6.51-9.172 14.464 0 7.953 8.798 14.201 9.172 14.464a.823.823 0 00.946 0c.29-.203 5.616-3.987 8.016-9.37l3.07 1.43a.82.82 0 001.096-.4.824.824 0 00-.4-1.095l-3.177-1.48c.238-.754.41-1.535.499-2.336h2.96zM41.415 35.127c-1.785-1.384-7.996-6.644-7.996-12.757 0-6.103 6.214-11.372 7.997-12.758.986.766 3.326 2.716 5.221 5.34a7.857 7.857 0 00-2.579-.432 7.799 7.799 0 00-5.55 2.299 7.798 7.798 0 00-2.3 5.55c0 2.098.816 4.069 2.3 5.552a7.798 7.798 0 005.55 2.299c.89 0 1.757-.148 2.574-.431-1.895 2.621-4.232 4.572-5.217 5.338zm6.965-8.313a6.157 6.157 0 01-4.322 1.756 6.16 6.16 0 01-4.385-1.816 6.16 6.16 0 01-1.816-4.384 6.16 6.16 0 011.816-4.385 6.16 6.16 0 014.385-1.816c1.63 0 3.162.626 4.327 1.761.626 1.392 1.026 2.888 1.026 4.44 0 1.552-.402 3.05-1.03 4.444z" fill="url(#paint6_linear)"/><path d="M19.146 31.886a.825.825 0 00-1.141-.242C12.2 35.41 9.342 43.323 9.223 43.657a.825.825 0 101.554.552c.028-.077 2.786-7.718 8.126-11.183a.825.825 0 00.243-1.14z" fill="url(#paint7_linear)"/><path d="M52.286 4.607A15.56 15.56 0 0041.208.025a15.56 15.56 0 00-11.077 4.582 2.548 2.548 0 00-.752 1.813 2.568 2.568 0 004.378 1.813c4.109-4.107 10.794-4.107 14.902 0a2.548 2.548 0 001.813.752 2.55 2.55 0 001.814-.751c1-1 1-2.627 0-3.627zm-1.167 2.46a.91.91 0 01-.647.268.91.91 0 01-.647-.268 12.148 12.148 0 00-8.617-3.563c-3.12 0-6.241 1.188-8.617 3.563a.916.916 0 01-1.294-1.294 13.92 13.92 0 019.911-4.098c3.749 0 7.269 1.455 9.911 4.098a.909.909 0 01.269.647.908.908 0 01-.269.647z" fill="url(#paint8_linear)"/><path d="M28.573 27.096a.825.825 0 00-1.337 0c-.576.796-2.456 3.504-2.456 4.93a3.128 3.128 0 003.124 3.125 3.128 3.128 0 003.125-3.125c0-1.426-1.88-4.135-2.456-4.93zm-.669 6.405a1.477 1.477 0 01-1.475-1.475c0-.484.683-1.768 1.475-2.987.794 1.225 1.476 2.517 1.476 2.987 0 .814-.662 1.475-1.476 1.475z" fill="url(#paint9_linear)"/></g><defs><linearGradient id="paint0_linear" x1="27.781" y1="47.371" x2="56.216" y2="46.763" gradientUnits="userSpaceOnUse"><stop stop-color="#FCAF45"/><stop offset=".198" stop-color="#F77737"/><stop offset=".396" stop-color="#FD1D1D"/><stop offset=".594" stop-color="#C13584"/><stop offset=".797" stop-color="#833AB4"/><stop offset="1" stop-color="#405DE6"/></linearGradient><linearGradient id="paint1_linear" x1="3.655" y1="40.356" x2="22.803" y2="40.206" gradientUnits="userSpaceOnUse"><stop stop-color="#FCAF45"/><stop offset=".198" stop-color="#F77737"/><stop offset=".396" stop-color="#FD1D1D"/><stop offset=".594" stop-color="#C13584"/><stop offset=".797" stop-color="#833AB4"/><stop offset="1" stop-color="#405DE6"/></linearGradient><linearGradient id="paint2_linear" x1="8.961" y1="50.392" x2="17.756" y2="50.042" gradientUnits="userSpaceOnUse"><stop stop-color="#FCAF45"/><stop offset=".198" stop-color="#F77737"/><stop offset=".396" stop-color="#FD1D1D"/><stop offset=".594" stop-color="#C13584"/><stop offset=".797" stop-color="#833AB4"/><stop offset="1" stop-color="#405DE6"/></linearGradient><linearGradient id="paint3_linear" x1=".859" y1="11.627" x2="31.237" y2="11.109" gradientUnits="userSpaceOnUse"><stop stop-color="#FCAF45"/><stop offset=".198" stop-color="#F77737"/><stop offset=".396" stop-color="#FD1D1D"/><stop offset=".594" stop-color="#C13584"/><stop offset=".797" stop-color="#833AB4"/><stop offset="1" stop-color="#405DE6"/></linearGradient><linearGradient id="paint4_linear" x1="11.684" y1="10.432" x2="19.558" y2="10.326" gradientUnits="userSpaceOnUse"><stop stop-color="#FCAF45"/><stop offset=".198" stop-color="#F77737"/><stop offset=".396" stop-color="#FD1D1D"/><stop offset=".594" stop-color="#C13584"/><stop offset=".797" stop-color="#833AB4"/><stop offset="1" stop-color="#405DE6"/></linearGradient><linearGradient id="paint5_linear" x1="40.598" y1="22.41" x2="48.471" y2="22.305" gradientUnits="userSpaceOnUse"><stop stop-color="#FCAF45"/><stop offset=".198" stop-color="#F77737"/><stop offset=".396" stop-color="#FD1D1D"/><stop offset=".594" stop-color="#C13584"/><stop offset=".797" stop-color="#833AB4"/><stop offset="1" stop-color="#405DE6"/></linearGradient><linearGradient id="paint6_linear" x1="31.769" y1="22.527" x2="55.688" y2="22.274" gradientUnits="userSpaceOnUse"><stop stop-color="#FCAF45"/><stop offset=".198" stop-color="#F77737"/><stop offset=".396" stop-color="#FD1D1D"/><stop offset=".594" stop-color="#C13584"/><stop offset=".797" stop-color="#833AB4"/><stop offset="1" stop-color="#405DE6"/></linearGradient><linearGradient id="paint7_linear" x1="9.175" y1="38.206" x2="19.679" y2="38.099" gradientUnits="userSpaceOnUse"><stop stop-color="#FCAF45"/><stop offset=".198" stop-color="#F77737"/><stop offset=".396" stop-color="#FD1D1D"/><stop offset=".594" stop-color="#C13584"/><stop offset=".797" stop-color="#833AB4"/><stop offset="1" stop-color="#405DE6"/></linearGradient><linearGradient id="paint8_linear" x1="29.379" y1="4.553" x2="53.945" y2="3.682" gradientUnits="userSpaceOnUse"><stop stop-color="#FCAF45"/><stop offset=".198" stop-color="#F77737"/><stop offset=".396" stop-color="#FD1D1D"/><stop offset=".594" stop-color="#C13584"/><stop offset=".797" stop-color="#833AB4"/><stop offset="1" stop-color="#405DE6"/></linearGradient><linearGradient id="paint9_linear" x1="24.78" y1="30.998" x2="31.277" y2="30.933" gradientUnits="userSpaceOnUse"><stop stop-color="#FCAF45"/><stop offset=".198" stop-color="#F77737"/><stop offset=".396" stop-color="#FD1D1D"/><stop offset=".594" stop-color="#C13584"/><stop offset=".797" stop-color="#833AB4"/><stop offset="1" stop-color="#405DE6"/></linearGradient><clipPath id="clip0"><path fill="#fff" d="M0 0h56v56H0z"/></clipPath></defs></svg>