<svg width="20" height="20" viewBox="0 0 20 20" fill="none" xmlns="http://www.w3.org/2000/svg"><path d="M10 0C4.486 0 0 4.486 0 10s4.486 10 10 10 10-4.486 10-10S15.514 0 10 0zm0 17.814c-4.309 0-7.814-3.505-7.814-7.814S5.69 2.186 10 2.186 17.814 5.69 17.814 10 14.31 17.814 10 17.814z" fill="url(#paint0_linear)"/><path d="M10.866 10.012V5.821a.847.847 0 10-1.695 0v4.462c0 .013.004.026.004.039a.842.842 0 00.244.64l3.156 3.155a.847.847 0 101.198-1.198l-2.907-2.907z" fill="url(#paint1_linear)"/><defs><linearGradient id="paint0_linear" x1="0" y1="10.107" x2="20.791" y2="9.828" gradientUnits="userSpaceOnUse"><stop stop-color="#FCAF45"/><stop offset=".198" stop-color="#F77737"/><stop offset=".396" stop-color="#FD1D1D"/><stop offset=".594" stop-color="#C13584"/><stop offset=".797" stop-color="#833AB4"/><stop offset="1" stop-color="#405DE6"/></linearGradient><linearGradient id="paint1_linear" x1="9.171" y1="9.72" x2="14.213" y2="9.685" gradientUnits="userSpaceOnUse"><stop stop-color="#FCAF45"/><stop offset=".198" stop-color="#F77737"/><stop offset=".396" stop-color="#FD1D1D"/><stop offset=".594" stop-color="#C13584"/><stop offset=".797" stop-color="#833AB4"/><stop offset="1" stop-color="#405DE6"/></linearGradient></defs></svg>