<svg width="21" height="21" viewBox="0 0 21 21" fill="none" xmlns="http://www.w3.org/2000/svg">
<g clip-path="url(#clip0)">
<path d="M20.2902 4.13698L13.9273 10.5005L20.2902 16.8637C21.2366 17.8105 21.2366 19.3442 20.2902 20.291C19.8173 20.7639 19.1973 21.0006 18.5776 21.0006C17.9569 21.0006 17.3368 20.7643 16.8643 20.291L10.5 13.9271L4.13626 20.291C3.66342 20.7639 3.04337 21.0005 2.42314 21.0005C1.80308 21.0005 1.18345 20.7642 0.710198 20.291C-0.23625 19.3446 -0.23625 17.8108 0.710198 16.8637L7.0729 10.5004L0.709836 4.13698C-0.236612 3.19053 -0.236612 1.65647 0.709836 0.710024C1.6561 -0.235698 3.18927 -0.235698 4.13589 0.710024L10.5 7.07355L16.8636 0.710024C17.8104 -0.235698 19.3437 -0.235698 20.2898 0.710024C21.2366 1.65647 21.2366 3.19053 20.2902 4.13698Z" fill="url(#paint0_linear)"/>
</g>
<defs>
<linearGradient id="paint0_linear" x1="3.181e-08" y1="10.6136" x2="21.8308" y2="10.3204" gradientUnits="userSpaceOnUse">
<stop stop-color="#FCAF45"/>
<stop offset="0.197917" stop-color="#F77737"/>
<stop offset="0.395833" stop-color="#FD1D1D"/>
<stop offset="0.59375" stop-color="#C13584"/>
<stop offset="0.796875" stop-color="#833AB4"/>
<stop offset="1" stop-color="#405DE6"/>
</linearGradient>
<clipPath id="clip0">
<rect width="21" height="21" fill="white"/>
</clipPath>
</defs>
</svg>
