<svg width="80" height="80" viewBox="0 0 80 80" fill="none" xmlns="http://www.w3.org/2000/svg"><g clip-path="url(#clip0)"><path d="M62.794 42.682H17.311a1.172 1.172 0 000 2.344h45.483a1.172 1.172 0 000-2.344z" fill="url(#paint0_linear)"/><path d="M62.794 50.772H17.311a1.172 1.172 0 000 2.343h45.483a1.172 1.172 0 000-2.343z" fill="url(#paint1_linear)"/><path d="M63.966 60.033c0-.647-.525-1.172-1.172-1.172H17.311a1.172 1.172 0 000 2.344h45.483c.647 0 1.172-.525 1.172-1.172z" fill="url(#paint2_linear)"/><path d="M17.31 66.951a1.172 1.172 0 000 2.344H40a1.172 1.172 0 000-2.344H17.31z" fill="url(#paint3_linear)"/><path d="M62.794 28.985H46.081a1.172 1.172 0 000 2.344h16.713a1.172 1.172 0 000-2.344z" fill="url(#paint4_linear)"/><path d="M62.794 22.632H46.081a1.172 1.172 0 000 2.343h16.713a1.172 1.172 0 000-2.343z" fill="url(#paint5_linear)"/><path d="M70.545 66.555c.647 0 1.172-.524 1.172-1.171V17.879a5.78 5.78 0 00-1.698-4.1C57.599 1.406 57.92 1.57 57.132 1.028A5.755 5.755 0 0053.837 0H14.081a5.804 5.804 0 00-5.798 5.798v68.404A5.804 5.804 0 0014.081 80H65.92c3.197 0 5.798-2.6 5.798-5.798v-3.32a1.172 1.172 0 10-2.344 0v3.32a3.458 3.458 0 01-3.454 3.454H14.08a3.458 3.458 0 01-3.454-3.454V5.798a3.458 3.458 0 013.454-3.454h39.756c.254 0 .502.03.744.082v10.67a4.044 4.044 0 004.04 4.04h10.67c.052.241.082.49.082.744v47.504c0 .647.525 1.171 1.172 1.171zM58.62 14.792a1.698 1.698 0 01-1.696-1.697V4.001l10.79 10.79H58.62z" fill="url(#paint6_linear)"/><path d="M17.206 19.477c-.647 0-1.172.525-1.172 1.172v10.489a3.874 3.874 0 003.87 3.87h13.762a3.874 3.874 0 003.87-3.87V14.072a3.874 3.874 0 00-3.87-3.87H19.904a3.874 3.874 0 00-3.87 3.87v1.099a1.172 1.172 0 102.344 0v-1.099c0-.841.684-1.525 1.525-1.525h13.763c.842 0 1.526.684 1.526 1.525V27.82a11.186 11.186 0 00-3.879-2.824c.593-.874.94-1.928.94-3.062a5.475 5.475 0 00-5.468-5.468 5.475 5.475 0 00-5.469 5.468c0 1.134.347 2.188.94 3.062a11.2 11.2 0 00-3.878 2.824v-7.171c0-.647-.525-1.172-1.172-1.172zm9.579-.668a3.129 3.129 0 013.125 3.125 3.129 3.129 0 01-3.125 3.125 3.129 3.129 0 01-3.125-3.125 3.129 3.129 0 013.125-3.125zm-2.557 7.957a5.434 5.434 0 002.557.637 5.43 5.43 0 002.557-.637A8.863 8.863 0 0135 31.877c-.26.469-.76.787-1.334.787H19.904a1.527 1.527 0 01-1.334-.787 8.861 8.861 0 015.658-5.111z" fill="url(#paint7_linear)"/></g><defs><linearGradient id="paint0_linear" x1="16.139" y1="43.866" x2="62.392" y2="31.189" gradientUnits="userSpaceOnUse"><stop stop-color="#FCAF45"/><stop offset=".198" stop-color="#F77737"/><stop offset=".396" stop-color="#FD1D1D"/><stop offset=".594" stop-color="#C13584"/><stop offset=".797" stop-color="#833AB4"/><stop offset="1" stop-color="#405DE6"/></linearGradient><linearGradient id="paint1_linear" x1="16.139" y1="51.956" x2="62.392" y2="39.278" gradientUnits="userSpaceOnUse"><stop stop-color="#FCAF45"/><stop offset=".198" stop-color="#F77737"/><stop offset=".396" stop-color="#FD1D1D"/><stop offset=".594" stop-color="#C13584"/><stop offset=".797" stop-color="#833AB4"/><stop offset="1" stop-color="#405DE6"/></linearGradient><linearGradient id="paint2_linear" x1="16.139" y1="60.046" x2="62.392" y2="47.368" gradientUnits="userSpaceOnUse"><stop stop-color="#FCAF45"/><stop offset=".198" stop-color="#F77737"/><stop offset=".396" stop-color="#FD1D1D"/><stop offset=".594" stop-color="#C13584"/><stop offset=".797" stop-color="#833AB4"/><stop offset="1" stop-color="#405DE6"/></linearGradient><linearGradient id="paint3_linear" x1="16.139" y1="68.135" x2="41.642" y2="64.477" gradientUnits="userSpaceOnUse"><stop stop-color="#FCAF45"/><stop offset=".198" stop-color="#F77737"/><stop offset=".396" stop-color="#FD1D1D"/><stop offset=".594" stop-color="#C13584"/><stop offset=".797" stop-color="#833AB4"/><stop offset="1" stop-color="#405DE6"/></linearGradient><linearGradient id="paint4_linear" x1="44.909" y1="30.17" x2="64.49" y2="28.031" gradientUnits="userSpaceOnUse"><stop stop-color="#FCAF45"/><stop offset=".198" stop-color="#F77737"/><stop offset=".396" stop-color="#FD1D1D"/><stop offset=".594" stop-color="#C13584"/><stop offset=".797" stop-color="#833AB4"/><stop offset="1" stop-color="#405DE6"/></linearGradient><linearGradient id="paint5_linear" x1="44.909" y1="23.816" x2="64.49" y2="21.677" gradientUnits="userSpaceOnUse"><stop stop-color="#FCAF45"/><stop offset=".198" stop-color="#F77737"/><stop offset=".396" stop-color="#FD1D1D"/><stop offset=".594" stop-color="#C13584"/><stop offset=".797" stop-color="#833AB4"/><stop offset="1" stop-color="#405DE6"/></linearGradient><linearGradient id="paint6_linear" x1="8.283" y1="40.43" x2="74.231" y2="39.728" gradientUnits="userSpaceOnUse"><stop stop-color="#FCAF45"/><stop offset=".198" stop-color="#F77737"/><stop offset=".396" stop-color="#FD1D1D"/><stop offset=".594" stop-color="#C13584"/><stop offset=".797" stop-color="#833AB4"/><stop offset="1" stop-color="#405DE6"/></linearGradient><linearGradient id="paint7_linear" x1="16.034" y1="22.738" x2="38.387" y2="22.478" gradientUnits="userSpaceOnUse"><stop stop-color="#FCAF45"/><stop offset=".198" stop-color="#F77737"/><stop offset=".396" stop-color="#FD1D1D"/><stop offset=".594" stop-color="#C13584"/><stop offset=".797" stop-color="#833AB4"/><stop offset="1" stop-color="#405DE6"/></linearGradient><clipPath id="clip0"><path fill="#fff" d="M0 0h80v80H0z"/></clipPath></defs></svg>