<svg width="80" height="80" viewBox="0 0 80 80" fill="none" xmlns="http://www.w3.org/2000/svg"><path d="M76.25 6.25h-7.5V5a1.25 1.25 0 00-2.5 0v1.25h-2.5V5a1.25 1.25 0 00-2.5 0v1.25h-2.5V5a1.25 1.25 0 00-2.5 0v1.25h-2.5V5a1.25 1.25 0 00-2.5 0v1.25h-2.5V5a1.25 1.25 0 00-2.5 0v1.25h-2.5V5a1.25 1.25 0 00-2.5 0v1.25h-2.5V5a1.25 1.25 0 00-2.5 0v1.25h-2.5V5a1.25 1.25 0 00-2.5 0v1.25h-2.5V5a1.25 1.25 0 00-2.5 0v1.25h-2.5V5a1.25 1.25 0 00-2.5 0v1.25h-2.5V5a1.25 1.25 0 00-2.5 0v1.25h-2.5V5a1.25 1.25 0 00-2.5 0v1.25h-7.5A1.25 1.25 0 002.5 7.5v60a1.25 1.25 0 001.25 1.25h52.412l6.401 6.402a3.748 3.748 0 005.303 0l3.536-3.536a3.728 3.728 0 001.091-2.866h3.757a1.25 1.25 0 001.25-1.25v-60a1.25 1.25 0 00-1.25-1.25zM41.758 45.508l3.24 1.246-1.994 1.994-1.246-3.24zm9.71 6.964a1.25 1.25 0 00.854-1.185v-.519l11.125 11.125-1.768 1.768-10.945-10.944.733-.245zM65.215 63.66l1.767 1.767-5.303 5.304-1.767-1.768 5.303-5.303zM49.822 50.385l-1.797.599a1.25 1.25 0 00-.79.79l-.6 1.797H44.86l-.873-2.27 3.565-3.566 2.27.874.001 1.776zm-2.285 5.686a1.25 1.25 0 001.185-.854l.245-.733L59.91 65.428l-1.767 1.767L47.02 56.071h.517zm22.097 13.776l-3.537 3.537a1.248 1.248 0 01-1.766 0l-.884-.884 5.303-5.304.883.884a1.251 1.251 0 010 1.768v-.001zM75 66.25h-3.66L51.956 46.866l-.002.003a1.244 1.244 0 00-.433-.285l-11.49-4.42a1.25 1.25 0 00-1.616 1.616l.95 2.47H13.75A1.252 1.252 0 0112.5 45v-5a8.76 8.76 0 018.75-8.75H52.5a6.26 6.26 0 006.125-5.003c.042 0 .083.003.125.003a1.25 1.25 0 000-2.5A3.755 3.755 0 0155 20v-1.25h3.232l2.134 2.134a1.25 1.25 0 001.768 0l2.134-2.134H67.5V20a3.755 3.755 0 01-3.75 3.75 1.25 1.25 0 000 2.5v5c0 4.32-1.958 9.182-4.656 11.563a1.25 1.25 0 101.654 1.874c3.24-2.859 5.502-8.384 5.502-13.437v-5.523A6.258 6.258 0 0070 20v-2.5a1.25 1.25 0 00-1.25-1.25h-5a1.25 1.25 0 00-.884.366l-1.616 1.616-1.616-1.616a1.252 1.252 0 00-.884-.366h-5a1.25 1.25 0 00-1.25 1.25V20a6.258 6.258 0 003.684 5.697A3.757 3.757 0 0152.5 28.75H41.875l-3.375-4.5a1.25 1.25 0 00-2 0l-3.375 4.5H21.25A11.263 11.263 0 0010 40v5a3.754 3.754 0 003.75 3.75h8.75V50a6.257 6.257 0 006.25 6.25h2.5A1.25 1.25 0 0032.5 55v-6.25h7.826l2.508 6.52c.064.164.16.312.285.435l-.001.001L53.662 66.25H5V8.75h6.25V10a1.25 1.25 0 002.5 0V8.75h2.5V10a1.25 1.25 0 002.5 0V8.75h2.5V10a1.25 1.25 0 002.5 0V8.75h2.5V10a1.25 1.25 0 002.5 0V8.75h2.5V10a1.25 1.25 0 002.5 0V8.75h2.5V10a1.25 1.25 0 002.5 0V8.75h2.5V10a1.25 1.25 0 002.5 0V8.75h2.5V10a1.25 1.25 0 002.5 0V8.75h2.5V10a1.25 1.25 0 002.5 0V8.75h2.5V10a1.25 1.25 0 002.5 0V8.75h2.5V10a1.25 1.25 0 002.5 0V8.75h2.5V10a1.25 1.25 0 002.5 0V8.75H75v57.5zm-50-17.5h5v5h-1.25A3.754 3.754 0 0125 50v-1.25zm11.25-20l1.25-1.667 1.25 1.667h-2.5z" fill="url(#paint0_linear)"/><path d="M20 41.25a1.25 1.25 0 100-2.5 1.25 1.25 0 000 2.5z" fill="url(#paint1_linear)"/><defs><linearGradient id="paint0_linear" x1="2.5" y1="40.39" x2="80.466" y2="39.307" gradientUnits="userSpaceOnUse"><stop stop-color="#FCAF45"/><stop offset=".198" stop-color="#F77737"/><stop offset=".396" stop-color="#FD1D1D"/><stop offset=".594" stop-color="#C13584"/><stop offset=".797" stop-color="#833AB4"/><stop offset="1" stop-color="#405DE6"/></linearGradient><linearGradient id="paint1_linear" x1="18.75" y1="40.013" x2="21.349" y2="39.978" gradientUnits="userSpaceOnUse"><stop stop-color="#FCAF45"/><stop offset=".198" stop-color="#F77737"/><stop offset=".396" stop-color="#FD1D1D"/><stop offset=".594" stop-color="#C13584"/><stop offset=".797" stop-color="#833AB4"/><stop offset="1" stop-color="#405DE6"/></linearGradient></defs></svg>