<svg width="20" height="20" viewBox="0 0 20 20" fill="none" xmlns="http://www.w3.org/2000/svg">
<path d="M10.5785 12.527C10.3896 12.645 10.1771 12.6923 9.98819 12.6923C9.79929 12.6923 9.58678 12.645 9.39787 12.527L0 6.78906V14.416C0 16.0453 1.32231 17.3676 2.95159 17.3676H17.0484C18.6777 17.3676 20 16.0453 20 14.416V6.78906L10.5785 12.527Z" fill="url(#paint0_linear)"/>
<path d="M17.0484 2.63281H2.95162C1.55847 2.63281 0.377835 3.62455 0.0944824 4.94686L10.0118 10.9917L19.9056 4.94686C19.6222 3.62455 18.4416 2.63281 17.0484 2.63281Z" fill="url(#paint1_linear)"/>
<defs>
<linearGradient id="paint0_linear" x1="3.02952e-08" y1="12.1352" x2="20.7816" y2="11.6075" gradientUnits="userSpaceOnUse">
<stop stop-color="#FCAF45"/>
<stop offset="0.197917" stop-color="#F77737"/>
<stop offset="0.395833" stop-color="#FD1D1D"/>
<stop offset="0.59375" stop-color="#C13584"/>
<stop offset="0.796875" stop-color="#833AB4"/>
<stop offset="1" stop-color="#405DE6"/>
</linearGradient>
<linearGradient id="paint1_linear" x1="0.0944825" y1="6.85721" x2="20.6722" y2="6.20221" gradientUnits="userSpaceOnUse">
<stop stop-color="#FCAF45"/>
<stop offset="0.197917" stop-color="#F77737"/>
<stop offset="0.395833" stop-color="#FD1D1D"/>
<stop offset="0.59375" stop-color="#C13584"/>
<stop offset="0.796875" stop-color="#833AB4"/>
<stop offset="1" stop-color="#405DE6"/>
</linearGradient>
</defs>
</svg>
