<svg width="42" height="42" viewBox="0 0 42 42" fill="none" xmlns="http://www.w3.org/2000/svg"><circle cx="21" cy="21" r="21" fill="url(#paint0_linear)"/><path d="M19.68 24.36c0-.704.208-1.376.624-2.016.432-.64.896-1.152 1.392-1.536.496-.4.952-.864 1.368-1.392.432-.528.648-1.056.648-1.584 0-.56-.192-.992-.576-1.296-.384-.304-.92-.456-1.608-.456-1.344 0-2.296.712-2.856 2.136l-2.832-1.632c.48-1.184 1.24-2.096 2.28-2.736 1.056-.656 2.232-.984 3.528-.984 1.456 0 2.712.424 3.768 1.272 1.072.832 1.608 1.984 1.608 3.456 0 .672-.144 1.296-.432 1.872a5.535 5.535 0 01-1.008 1.488c-.384.4-.776.784-1.176 1.152a8.07 8.07 0 00-1.008 1.104c-.272.384-.408.768-.408 1.152H19.68zm3.096 5.352c-.4.4-.88.6-1.44.6-.56 0-1.04-.2-1.44-.6-.4-.4-.6-.88-.6-1.44 0-.56.2-1.04.6-1.44.4-.4.88-.6 1.44-.6.56 0 1.04.2 1.44.6.4.4.6.88.6 1.44 0 .56-.2 1.04-.6 1.44z" fill="#fff"/><defs><linearGradient id="paint0_linear" x1="0" y1="21.226" x2="43.662" y2="20.639" gradientUnits="userSpaceOnUse"><stop stop-color="#FCAF45"/><stop offset=".198" stop-color="#F77737"/><stop offset=".396" stop-color="#FD1D1D"/><stop offset=".594" stop-color="#C13584"/><stop offset=".797" stop-color="#833AB4"/><stop offset="1" stop-color="#405DE6"/></linearGradient></defs></svg>