<svg width="30" height="30" viewBox="0 0 30 30" fill="none" xmlns="http://www.w3.org/2000/svg"><path d="M28.633 8.485c.188-.502-.013-1.1-.1-1.601-.13-.746-.121-1.632-.373-2.347-.145-.41-.458-.58-.863-.655-.74-.136-1.496-.194-2.238-.321a61.75 61.75 0 01-4.297-.896c-1.567-.386-3.09-.91-4.649-1.321-1.127-.299-2.321-.325-3.268.374-.247-1.098-.848-1.973-2.287-1.65-1.582.355-3.223 1.36-4.218 2.64-.602.774-1.232 2.141-.89 3.152-1.127.537-2.28 1.078-3.345 1.721-1.037.627-.86 1.672-.67 2.725.099.55.204 1.164.445 1.672.145.306.35.485.608.607a387.19 387.19 0 001.376 9.031l.357 2.183c.103.624.107 1.413.46 1.957.283.438.76.59 1.236.732.777.231 1.548.476 2.32.722a.362.362 0 00.353-.058c.062.1.14.192.238.275.448.376 1.143.54 1.686.722.515.174 1.4.627 1.911.242a.707.707 0 00.07-.06 45.32 45.32 0 002.83.869c.983.268 2.04.7 3.057.793.952.086 1.724-.594 2.458-1.107a53.143 53.143 0 002.465-1.837c1.624-1.282 3.273-2.635 4.687-4.15.676-.724.564-1.579.555-2.512a186.039 186.039 0 00-.444-11.211c.229-.201.43-.424.53-.691zm-7.25-4.73c1.72.391 3.452.7 5.193.998a213.404 213.404 0 01-5.017 4.07c-.891.702-1.779 1.412-2.692 2.086-.575.426-1.02.536-1.71.372-.579-.138-1.152-.295-1.727-.444-1.16-.301-2.32-.6-3.482-.883.168-.11.338-.21.477-.309l.96-.674c.07.148.157.292.265.429.473.598 1.188.775 1.922.652 1.768-.296 3.5-1.795 4.596-3.145.564-.694 1.427-2.117 1.215-3.151zm-8.211 4.543c-.572.379-1.145.756-1.715 1.137-.145.097-.29.194-.425.3a81.186 81.186 0 00-3.004-.651 2.32 2.32 0 01.362-.264c.387-.243.779-.48 1.159-.735.66-.44 1.32-.877 1.989-1.306.41.333 1.056.401 1.557.358-.003.39.006.784.076 1.16zm-1.96 2.528a.808.808 0 01.14-.346c1.721.417 3.433.867 5.137 1.305.5.128.942.237 1.373.225.024 1.091-.003 2.21.08 3.302-.211-.038-.42-.106-.615-.156-.658-.17-1.313-.348-1.968-.529-1.302-.36-2.594-.754-3.902-1.095l-.007-.077-.143-1.413c-.039-.383-.15-.828-.095-1.216zm8.524-7.27c.306.028.629.087.704.41.065.277-.06.629-.15.892-.218.637-.611 1.205-1.058 1.702-.804.894-1.81 1.761-2.896 2.287-.622.301-1.472.597-2.041.055-.502-.478-.554-1.23-.551-1.893a2.994 2.994 0 001.447-.993l.227 1.157c.071.362.61.206.549-.15l-.209-1.234c.477-.098.981-.058 1.454.03.322.112.474-.423.142-.512-.508-.135-.992-.14-1.492-.097a6.924 6.924 0 00-.188-.001 2.18 2.18 0 00.152-.533c.04-.008.08-.02.122-.043 1.15-.598 2.447-1.195 3.788-1.076zM17.97 2.86c-.803.202-1.613.531-2.286 1-.019-.032-.038-.065-.06-.096a1.784 1.784 0 00-.096-.119c.62-.302 1.242-.614 1.832-.97.203.061.406.125.61.185zm-4.795-.335c.92-.797 2.22-.454 3.262-.13l.087.026a33.16 33.16 0 00-1.419.877c-.505-.315-1.175-.463-1.697-.39-.146.02-.28.06-.407.111a8.99 8.99 0 00-.024-.395.43.43 0 00.198-.099zm1.777 1.8a.25.25 0 00.03.037c.152.692-1.01 1.624-1.56 1.809-.469.158-1.323.284-1.498-.362-.102-.378.172-1.005.379-1.307.595-.868 2.005-1.152 2.649-.177zm-7.874-1.17c.743-.896 1.784-1.527 2.86-1.947.59-.23 1.447-.61 1.916.013.403.535.619 1.382.715 2.05a2.404 2.404 0 00-.286.262c-.056.04-.112.082-.166.127a4.61 4.61 0 00-.492-.84c-.216-.287-.64-.05-.485.283.138.296.258.595.359.903-.33.03-.66.09-.984.138-.414.062-.246.72.176.638.23-.045.464-.08.697-.12-.16.36-.274.774-.268 1.16-1.287.385-2.55.678-3.9.395-1.677-.351-.899-2.15-.142-3.062zm-3.753 4.68a279.68 279.68 0 012.391-1.493c.117.142.264.27.447.38.703.42 1.729.459 2.524.453a7.81 7.81 0 001.238-.107c-.208.115-.415.232-.624.347-.625.344-1.415.673-1.93 1.175-.104.102-.18.211-.233.326a47.139 47.139 0 00-4.59-.611c.247-.193.568-.339.777-.47zm-.934 2.453c-.09-.42-.277-.999-.2-1.445 1.617.144 3.223.385 4.821.687-.004.16.006.323.016.489.054.909.118 1.817.181 2.725a44.16 44.16 0 01-2.802-.574c-.37-.089-1.228-.173-1.529-.432-.322-.279-.403-1.052-.487-1.45zm4.117 15.499c-.264-.088-.659-.155-.884-.33-.316-.246-.328-.64-.393-.996-.252-1.363-.495-2.727-.743-4.091a335.266 335.266 0 00-1.48-7.611 49.87 49.87 0 004.152.842.48.48 0 00.112.004c.228 3.196.51 6.388.794 9.58.077.859.157 1.718.236 2.577.019.199.029.406.053.61-.617-.192-1.234-.38-1.847-.585zm5.363 1.933c-.108.052-.586-.177-.686-.21-.552-.18-1.502-.361-1.858-.833-.222-.294-.196-.815-.234-1.173a304.535 304.535 0 01-.98-10.576c-.128-1.712-.324-3.45-.331-5.168l.001-.08c.926.187 1.848.392 2.768.608a1.194 1.194 0 00-.094.246c-.151.6.013 1.29.073 1.893l.245 2.44c.31 3.08.623 6.16.94 9.24.075.717.145 1.435.195 2.155.026.379.058.763.06 1.143 0 .175.047.245-.1.315zm6.592 1.375a1.646 1.646 0 01-.368-.032c-.651-.129-1.296-.309-1.94-.466a56.992 56.992 0 00-3.436-.745c.037-.23.016-.481.008-.701-.03-.89-.1-1.778-.18-2.665a529.606 529.606 0 00-.501-5.123l-.516-5.114c1.258.495 2.546.905 3.84 1.3.805.247 1.796.704 2.716.739.23 4.27.429 8.528.377 12.807zm9.107-7.247c-.099.323-.42.568-.65.797a47.637 47.637 0 01-7.218 5.934 5.509 5.509 0 01-.484.299c.141-4.191-.012-8.43-.653-12.576a.286.286 0 00.054-.046c.145-.026.287-.066.424-.125 2.536-1.08 4.653-3.272 6.727-5.023l1.474-1.244c.137 2.384.24 4.77.294 7.157.031 1.38.044 2.762.053 4.143 0 .205.04.48-.021.684zm.2-13.836c-.08.472-.926.968-1.265 1.258l-1.489 1.269c-1.812 1.545-3.598 3.148-5.674 4.337-.205.118-.43.266-.66.363-.05-1.1-.21-2.214-.312-3.304.216-.062.435-.163.661-.318.972-.666 1.893-1.427 2.823-2.15a151.43 151.43 0 005.378-4.414c.008.043.015.095.027.159.057.299.12.596.18.895.059.298.12.596.175.895.053.29.206.713.156 1.01z" fill="url(#paint0_linear)"/><defs><linearGradient id="paint0_linear" x1="1.29" y1="15.161" x2="29.796" y2="14.811" gradientUnits="userSpaceOnUse"><stop stop-color="#FCAF45"/><stop offset=".198" stop-color="#F77737"/><stop offset=".396" stop-color="#FD1D1D"/><stop offset=".594" stop-color="#C13584"/><stop offset=".797" stop-color="#833AB4"/><stop offset="1" stop-color="#405DE6"/></linearGradient></defs></svg>