<svg width="34" height="34" viewBox="0 0 34 34" fill="none" xmlns="http://www.w3.org/2000/svg"><g clip-path="url(#clip0)"><path d="M23.2.467H10.8C5.094.467.467 5.094.467 10.8v12.4c0 5.706 4.627 10.333 10.333 10.333h12.4c5.706 0 10.333-4.627 10.333-10.333V10.8C33.533 5.094 28.906.467 23.2.467zM30.433 23.2a7.24 7.24 0 01-7.233 7.233H10.8A7.24 7.24 0 013.567 23.2V10.8A7.24 7.24 0 0110.8 3.567h12.4a7.24 7.24 0 017.233 7.233v12.4z" fill="url(#paint0_linear)"/><path d="M17 8.733a8.267 8.267 0 100 16.534 8.267 8.267 0 000-16.534zm0 13.434A5.174 5.174 0 0111.833 17 5.173 5.173 0 0117 11.833 5.173 5.173 0 0122.167 17 5.174 5.174 0 0117 22.167z" fill="url(#paint1_linear)"/><path d="M25.887 9.215a1.102 1.102 0 100-2.203 1.102 1.102 0 000 2.203z" fill="url(#paint2_linear)"/></g><defs><linearGradient id="paint0_linear" x1=".467" y1="17.178" x2="34.842" y2="16.716" gradientUnits="userSpaceOnUse"><stop stop-color="#FCAF45"/><stop offset=".198" stop-color="#F77737"/><stop offset=".396" stop-color="#FD1D1D"/><stop offset=".594" stop-color="#C13584"/><stop offset=".797" stop-color="#833AB4"/><stop offset="1" stop-color="#405DE6"/></linearGradient><linearGradient id="paint1_linear" x1="8.733" y1="17.089" x2="25.921" y2="16.858" gradientUnits="userSpaceOnUse"><stop stop-color="#FCAF45"/><stop offset=".198" stop-color="#F77737"/><stop offset=".396" stop-color="#FD1D1D"/><stop offset=".594" stop-color="#C13584"/><stop offset=".797" stop-color="#833AB4"/><stop offset="1" stop-color="#405DE6"/></linearGradient><linearGradient id="paint2_linear" x1="24.786" y1="8.125" x2="27.076" y2="8.095" gradientUnits="userSpaceOnUse"><stop stop-color="#FCAF45"/><stop offset=".198" stop-color="#F77737"/><stop offset=".396" stop-color="#FD1D1D"/><stop offset=".594" stop-color="#C13584"/><stop offset=".797" stop-color="#833AB4"/><stop offset="1" stop-color="#405DE6"/></linearGradient><clipPath id="clip0"><path fill="#fff" transform="translate(.467 .467)" d="M0 0h33.067v33.067H0z"/></clipPath></defs></svg>