<svg width="102" height="74" viewBox="0 0 102 74" fill="none" xmlns="http://www.w3.org/2000/svg">
<path d="M6.71875 26.2344H16.6719V30H2.03125V7.25H6.71875V26.2344ZM24.0625 21.9844V30H19.375V7.25H28.25C29.9583 7.25 31.4583 7.5625 32.75 8.1875C34.0521 8.8125 35.0521 9.70312 35.75 10.8594C36.4479 12.0052 36.7969 13.3125 36.7969 14.7812C36.7969 17.0104 36.0312 18.7708 34.5 20.0625C32.9792 21.3438 30.8698 21.9844 28.1719 21.9844H24.0625ZM24.0625 18.1875H28.25C29.4896 18.1875 30.4323 17.8958 31.0781 17.3125C31.7344 16.7292 32.0625 15.8958 32.0625 14.8125C32.0625 13.6979 31.7344 12.7969 31.0781 12.1094C30.4219 11.4219 29.5156 11.0677 28.3594 11.0469H24.0625V18.1875ZM60.8438 25.3125H52.625L51.0625 30H46.0781L54.5469 7.25H58.8906L67.4062 30H62.4219L60.8438 25.3125ZM53.8906 21.5156H59.5781L56.7188 13L53.8906 21.5156ZM78.7344 17.3281C78.1198 17.2448 77.5781 17.2031 77.1094 17.2031C75.401 17.2031 74.2812 17.7812 73.75 18.9375V30H69.2344V13.0938H73.5L73.625 15.1094C74.5312 13.5573 75.7865 12.7812 77.3906 12.7812C77.8906 12.7812 78.3594 12.849 78.7969 12.9844L78.7344 17.3281ZM87.1094 8.9375V13.0938H90V16.4062H87.1094V24.8438C87.1094 25.4688 87.2292 25.9167 87.4688 26.1875C87.7083 26.4583 88.1667 26.5938 88.8438 26.5938C89.3438 26.5938 89.7865 26.5573 90.1719 26.4844V29.9062C89.2865 30.1771 88.375 30.3125 87.4375 30.3125C84.2708 30.3125 82.6562 28.7135 82.5938 25.5156V16.4062H80.125V13.0938H82.5938V8.9375H87.1094Z" fill="url(#paint0_linear)"/>
<path d="M2.46777 45.1035V49H1.15527V39.0469H4.82617C5.91536 39.0469 6.76758 39.3249 7.38281 39.8809C8.0026 40.4368 8.3125 41.1729 8.3125 42.0889C8.3125 43.055 8.00944 43.8001 7.40332 44.3242C6.80176 44.8438 5.93815 45.1035 4.8125 45.1035H2.46777ZM2.46777 44.0303H4.82617C5.52799 44.0303 6.06576 43.8662 6.43945 43.5381C6.81315 43.2054 7 42.7269 7 42.1025C7 41.5101 6.81315 41.0361 6.43945 40.6807C6.06576 40.3252 5.55306 40.1406 4.90137 40.127H2.46777V44.0303ZM13.3643 42.7383C13.1729 42.7064 12.9655 42.6904 12.7422 42.6904C11.9128 42.6904 11.3499 43.0436 11.0537 43.75V49H9.78906V41.6035H11.0195L11.04 42.458C11.4548 41.7972 12.0426 41.4668 12.8037 41.4668C13.0498 41.4668 13.2367 41.4987 13.3643 41.5625V42.7383ZM15.9072 49H14.6426V41.6035H15.9072V49ZM14.54 39.6416C14.54 39.4365 14.6016 39.2633 14.7246 39.1221C14.8522 38.9808 15.0391 38.9102 15.2852 38.9102C15.5312 38.9102 15.7181 38.9808 15.8457 39.1221C15.9733 39.2633 16.0371 39.4365 16.0371 39.6416C16.0371 39.8467 15.9733 40.0176 15.8457 40.1543C15.7181 40.291 15.5312 40.3594 15.2852 40.3594C15.0391 40.3594 14.8522 40.291 14.7246 40.1543C14.6016 40.0176 14.54 39.8467 14.54 39.6416ZM19.1338 41.6035L19.1748 42.5332C19.7399 41.8223 20.4782 41.4668 21.3896 41.4668C22.9528 41.4668 23.7412 42.3486 23.7549 44.1123V49H22.4902V44.1055C22.4857 43.5723 22.3626 43.1781 22.1211 42.9229C21.8841 42.6676 21.5127 42.54 21.0068 42.54C20.5967 42.54 20.2367 42.6494 19.9268 42.8682C19.6169 43.0869 19.3753 43.374 19.2021 43.7295V49H17.9375V41.6035H19.1338ZM27.3779 39.8125V41.6035H28.7588V42.5811H27.3779V47.168C27.3779 47.4642 27.4395 47.6875 27.5625 47.8379C27.6855 47.9837 27.8952 48.0566 28.1914 48.0566C28.3372 48.0566 28.5378 48.0293 28.793 47.9746V49C28.4603 49.0911 28.1367 49.1367 27.8223 49.1367C27.2572 49.1367 26.8311 48.9658 26.5439 48.624C26.2568 48.2822 26.1133 47.7969 26.1133 47.168V42.5811H24.7666V41.6035H26.1133V39.8125H27.3779ZM34.5488 47.0381C34.5488 46.6963 34.4189 46.432 34.1592 46.2451C33.904 46.0537 33.4551 45.8896 32.8125 45.7529C32.1745 45.6162 31.6663 45.4521 31.2881 45.2607C30.9144 45.0693 30.6364 44.8415 30.4541 44.5771C30.2764 44.3128 30.1875 43.9984 30.1875 43.6338C30.1875 43.0277 30.4427 42.515 30.9531 42.0957C31.4681 41.6764 32.1243 41.4668 32.9219 41.4668C33.7604 41.4668 34.4395 41.6833 34.959 42.1162C35.4831 42.5492 35.7451 43.1029 35.7451 43.7773H34.4736C34.4736 43.431 34.3255 43.1325 34.0293 42.8818C33.7376 42.6312 33.3685 42.5059 32.9219 42.5059C32.4616 42.5059 32.1016 42.6061 31.8418 42.8066C31.582 43.0072 31.4521 43.2692 31.4521 43.5928C31.4521 43.8981 31.5729 44.1283 31.8145 44.2832C32.056 44.4382 32.4912 44.5863 33.1201 44.7275C33.7536 44.8688 34.2663 45.0374 34.6582 45.2334C35.0501 45.4294 35.3395 45.6663 35.5264 45.9443C35.7178 46.2178 35.8135 46.5527 35.8135 46.9492C35.8135 47.61 35.5492 48.141 35.0205 48.542C34.4919 48.9385 33.806 49.1367 32.9629 49.1367C32.3704 49.1367 31.8464 49.0319 31.3906 48.8223C30.9349 48.6126 30.5771 48.321 30.3174 47.9473C30.0622 47.569 29.9346 47.1611 29.9346 46.7236H31.1992C31.222 47.1475 31.3906 47.4847 31.7051 47.7354C32.0241 47.9814 32.4434 48.1045 32.9629 48.1045C33.4414 48.1045 33.8242 48.0088 34.1113 47.8174C34.403 47.6214 34.5488 47.3617 34.5488 47.0381ZM40.5986 45.2334C40.5986 44.5088 40.7399 43.8571 41.0225 43.2783C41.3096 42.6995 41.7061 42.2529 42.2119 41.9385C42.7223 41.624 43.3034 41.4668 43.9551 41.4668C44.9622 41.4668 45.7757 41.8154 46.3955 42.5127C47.0199 43.21 47.332 44.1374 47.332 45.2949V45.3838C47.332 46.1038 47.193 46.751 46.915 47.3252C46.6416 47.8949 46.2474 48.3392 45.7324 48.6582C45.222 48.9772 44.6341 49.1367 43.9688 49.1367C42.9661 49.1367 42.1527 48.7881 41.5283 48.0908C40.9085 47.3936 40.5986 46.4707 40.5986 45.3223V45.2334ZM41.8701 45.3838C41.8701 46.2041 42.0592 46.8626 42.4375 47.3594C42.8203 47.8561 43.3307 48.1045 43.9688 48.1045C44.6113 48.1045 45.1217 47.8538 45.5 47.3525C45.8783 46.8467 46.0674 46.1403 46.0674 45.2334C46.0674 44.4222 45.8737 43.766 45.4863 43.2646C45.1035 42.7588 44.5931 42.5059 43.9551 42.5059C43.3307 42.5059 42.8271 42.7542 42.4443 43.251C42.0615 43.7477 41.8701 44.4587 41.8701 45.3838ZM50.1143 41.6035L50.1553 42.5332C50.7204 41.8223 51.4587 41.4668 52.3701 41.4668C53.9333 41.4668 54.7217 42.3486 54.7354 44.1123V49H53.4707V44.1055C53.4661 43.5723 53.3431 43.1781 53.1016 42.9229C52.8646 42.6676 52.4932 42.54 51.9873 42.54C51.5771 42.54 51.2171 42.6494 50.9072 42.8682C50.5973 43.0869 50.3558 43.374 50.1826 43.7295V49H48.918V41.6035H50.1143ZM3.92383 60.1045C4.375 60.1045 4.76921 59.9678 5.10645 59.6943C5.44368 59.4209 5.63053 59.0791 5.66699 58.6689H6.86328C6.84049 59.0928 6.69466 59.4961 6.42578 59.8789C6.1569 60.2617 5.79688 60.5671 5.3457 60.7949C4.89909 61.0228 4.42513 61.1367 3.92383 61.1367C2.91667 61.1367 2.11458 60.8018 1.51758 60.1318C0.92513 59.4574 0.628906 58.5368 0.628906 57.3701V57.1582C0.628906 56.4382 0.761068 55.7979 1.02539 55.2373C1.28971 54.6768 1.66797 54.2415 2.16016 53.9316C2.6569 53.6217 3.24251 53.4668 3.91699 53.4668C4.74642 53.4668 5.43457 53.7152 5.98145 54.2119C6.53288 54.7087 6.82682 55.3535 6.86328 56.1465H5.66699C5.63053 55.668 5.44824 55.276 5.12012 54.9707C4.79655 54.6608 4.39551 54.5059 3.91699 54.5059C3.27441 54.5059 2.77539 54.7383 2.41992 55.2031C2.06901 55.6634 1.89355 56.3311 1.89355 57.2061V57.4453C1.89355 58.2975 2.06901 58.9538 2.41992 59.4141C2.77083 59.8743 3.27214 60.1045 3.92383 60.1045ZM9.65918 61H8.39453V50.5H9.65918V61ZM11.3545 57.2334C11.3545 56.5088 11.4958 55.8571 11.7783 55.2783C12.0654 54.6995 12.4619 54.2529 12.9678 53.9385C13.4782 53.624 14.0592 53.4668 14.7109 53.4668C15.7181 53.4668 16.5316 53.8154 17.1514 54.5127C17.7757 55.21 18.0879 56.1374 18.0879 57.2949V57.3838C18.0879 58.1038 17.9489 58.751 17.6709 59.3252C17.3975 59.8949 17.0033 60.3392 16.4883 60.6582C15.9779 60.9772 15.39 61.1367 14.7246 61.1367C13.722 61.1367 12.9085 60.7881 12.2842 60.0908C11.6644 59.3936 11.3545 58.4707 11.3545 57.3223V57.2334ZM12.626 57.3838C12.626 58.2041 12.8151 58.8626 13.1934 59.3594C13.5762 59.8561 14.0866 60.1045 14.7246 60.1045C15.3672 60.1045 15.8776 59.8538 16.2559 59.3525C16.6341 58.8467 16.8232 58.1403 16.8232 57.2334C16.8232 56.4222 16.6296 55.766 16.2422 55.2646C15.8594 54.7588 15.349 54.5059 14.7109 54.5059C14.0866 54.5059 13.583 54.7542 13.2002 55.251C12.8174 55.7477 12.626 56.4587 12.626 57.3838ZM21.3896 51.8125V53.6035H22.7705V54.5811H21.3896V59.168C21.3896 59.4642 21.4512 59.6875 21.5742 59.8379C21.6973 59.9837 21.9069 60.0566 22.2031 60.0566C22.349 60.0566 22.5495 60.0293 22.8047 59.9746V61C22.472 61.0911 22.1484 61.1367 21.834 61.1367C21.2689 61.1367 20.8428 60.9658 20.5557 60.624C20.2686 60.2822 20.125 59.7969 20.125 59.168V54.5811H18.7783V53.6035H20.125V51.8125H21.3896ZM25.5186 54.499C26.0791 53.8109 26.8083 53.4668 27.7061 53.4668C29.2692 53.4668 30.0576 54.3486 30.0713 56.1123V61H28.8066V56.1055C28.8021 55.5723 28.679 55.1781 28.4375 54.9229C28.2005 54.6676 27.8291 54.54 27.3232 54.54C26.9131 54.54 26.5531 54.6494 26.2432 54.8682C25.9333 55.0869 25.6917 55.374 25.5186 55.7295V61H24.2539V50.5H25.5186V54.499ZM35.0342 61.1367C34.0316 61.1367 33.2158 60.8086 32.5869 60.1523C31.958 59.4915 31.6436 58.6097 31.6436 57.5068V57.2744C31.6436 56.5407 31.7826 55.8867 32.0605 55.3125C32.3431 54.7337 32.735 54.2826 33.2363 53.959C33.7422 53.6309 34.2891 53.4668 34.877 53.4668C35.8385 53.4668 36.5859 53.7835 37.1191 54.417C37.6523 55.0505 37.9189 55.9574 37.9189 57.1377V57.6641H32.9082C32.9264 58.3932 33.1383 58.9834 33.5439 59.4346C33.9541 59.8812 34.4736 60.1045 35.1025 60.1045C35.5492 60.1045 35.9274 60.0133 36.2373 59.8311C36.5472 59.6488 36.8184 59.4072 37.0508 59.1064L37.8232 59.708C37.2035 60.6605 36.2738 61.1367 35.0342 61.1367ZM34.877 54.5059C34.3665 54.5059 33.9382 54.6927 33.5918 55.0664C33.2454 55.4355 33.0312 55.9551 32.9492 56.625H36.6543V56.5293C36.6178 55.8867 36.4447 55.39 36.1348 55.0391C35.8249 54.6836 35.4056 54.5059 34.877 54.5059ZM43.6953 59.0381C43.6953 58.6963 43.5654 58.432 43.3057 58.2451C43.0505 58.0537 42.6016 57.8896 41.959 57.7529C41.321 57.6162 40.8128 57.4521 40.4346 57.2607C40.0609 57.0693 39.7829 56.8415 39.6006 56.5771C39.4229 56.3128 39.334 55.9984 39.334 55.6338C39.334 55.0277 39.5892 54.515 40.0996 54.0957C40.6146 53.6764 41.2708 53.4668 42.0684 53.4668C42.9069 53.4668 43.5859 53.6833 44.1055 54.1162C44.6296 54.5492 44.8916 55.1029 44.8916 55.7773H43.6201C43.6201 55.431 43.472 55.1325 43.1758 54.8818C42.8841 54.6312 42.515 54.5059 42.0684 54.5059C41.6081 54.5059 41.248 54.6061 40.9883 54.8066C40.7285 55.0072 40.5986 55.2692 40.5986 55.5928C40.5986 55.8981 40.7194 56.1283 40.9609 56.2832C41.2025 56.4382 41.6377 56.5863 42.2666 56.7275C42.9001 56.8688 43.4128 57.0374 43.8047 57.2334C44.1966 57.4294 44.486 57.6663 44.6729 57.9443C44.8643 58.2178 44.96 58.5527 44.96 58.9492C44.96 59.61 44.6956 60.141 44.167 60.542C43.6383 60.9385 42.9525 61.1367 42.1094 61.1367C41.5169 61.1367 40.9928 61.0319 40.5371 60.8223C40.0814 60.6126 39.7236 60.321 39.4639 59.9473C39.2087 59.569 39.0811 59.1611 39.0811 58.7236H40.3457C40.3685 59.1475 40.5371 59.4847 40.8516 59.7354C41.1706 59.9814 41.5898 60.1045 42.1094 60.1045C42.5879 60.1045 42.9707 60.0088 43.2578 59.8174C43.5495 59.6214 43.6953 59.3617 43.6953 59.0381ZM54.6465 61C54.5736 60.8542 54.5143 60.5944 54.4688 60.2207C53.8809 60.8314 53.179 61.1367 52.3633 61.1367C51.6341 61.1367 51.0348 60.9316 50.5654 60.5215C50.1006 60.1068 49.8682 59.5827 49.8682 58.9492C49.8682 58.179 50.1598 57.582 50.7432 57.1582C51.3311 56.7298 52.1559 56.5156 53.2178 56.5156H54.4482V55.9346C54.4482 55.4925 54.3161 55.1416 54.0518 54.8818C53.7874 54.6175 53.3978 54.4854 52.8828 54.4854C52.4316 54.4854 52.0534 54.5993 51.748 54.8271C51.4427 55.055 51.29 55.3307 51.29 55.6543H50.0186C50.0186 55.2852 50.1484 54.9297 50.4082 54.5879C50.6725 54.2415 51.028 53.9681 51.4746 53.7676C51.9258 53.5671 52.4202 53.4668 52.958 53.4668C53.8102 53.4668 54.4779 53.681 54.9609 54.1094C55.444 54.5332 55.6947 55.1188 55.7129 55.8662V59.2705C55.7129 59.9495 55.7995 60.4896 55.9727 60.8906V61H54.6465ZM52.5479 60.0361C52.9443 60.0361 53.3203 59.9336 53.6758 59.7285C54.0312 59.5234 54.2887 59.2568 54.4482 58.9287V57.4111H53.457C51.9076 57.4111 51.1328 57.8646 51.1328 58.7715C51.1328 59.168 51.265 59.4779 51.5293 59.7012C51.7936 59.9245 52.1331 60.0361 52.5479 60.0361ZM58.8916 53.6035L58.9326 54.5332C59.4977 53.8223 60.236 53.4668 61.1475 53.4668C62.7106 53.4668 63.499 54.3486 63.5127 56.1123V61H62.248V56.1055C62.2435 55.5723 62.1204 55.1781 61.8789 54.9229C61.6419 54.6676 61.2705 54.54 60.7646 54.54C60.3545 54.54 59.9945 54.6494 59.6846 54.8682C59.3747 55.0869 59.1331 55.374 58.96 55.7295V61H57.6953V53.6035H58.8916ZM65.1123 57.2402C65.1123 56.1055 65.3812 55.194 65.9189 54.5059C66.4567 53.8132 67.1608 53.4668 68.0312 53.4668C68.8971 53.4668 69.583 53.763 70.0889 54.3555V50.5H71.3535V61H70.1914L70.1299 60.207C69.624 60.8268 68.9199 61.1367 68.0176 61.1367C67.1608 61.1367 66.4613 60.7858 65.9189 60.084C65.3812 59.3822 65.1123 58.4661 65.1123 57.3359V57.2402ZM66.377 57.3838C66.377 58.2223 66.5501 58.8786 66.8965 59.3525C67.2428 59.8265 67.7214 60.0635 68.332 60.0635C69.1341 60.0635 69.7197 59.7035 70.0889 58.9834V55.5859C69.7106 54.8887 69.1296 54.54 68.3457 54.54C67.7259 54.54 67.2428 54.7793 66.8965 55.2578C66.5501 55.7363 66.377 56.445 66.377 57.3838ZM2.33105 73H1.06641V65.6035H2.33105V73ZM0.963867 63.6416C0.963867 63.4365 1.02539 63.2633 1.14844 63.1221C1.27604 62.9808 1.46289 62.9102 1.70898 62.9102C1.95508 62.9102 2.14193 62.9808 2.26953 63.1221C2.39714 63.2633 2.46094 63.4365 2.46094 63.6416C2.46094 63.8467 2.39714 64.0176 2.26953 64.1543C2.14193 64.291 1.95508 64.3594 1.70898 64.3594C1.46289 64.3594 1.27604 64.291 1.14844 64.1543C1.02539 64.0176 0.963867 63.8467 0.963867 63.6416ZM6.07715 63.8125V65.6035H7.45801V66.5811H6.07715V71.168C6.07715 71.4642 6.13867 71.6875 6.26172 71.8379C6.38477 71.9837 6.5944 72.0566 6.89062 72.0566C7.03646 72.0566 7.23698 72.0293 7.49219 71.9746V73C7.15951 73.0911 6.83594 73.1367 6.52148 73.1367C5.95638 73.1367 5.53027 72.9658 5.24316 72.624C4.95605 72.2822 4.8125 71.7969 4.8125 71.168V66.5811H3.46582V65.6035H4.8125V63.8125H6.07715ZM12.0107 73.1367C11.0081 73.1367 10.1924 72.8086 9.56348 72.1523C8.93457 71.4915 8.62012 70.6097 8.62012 69.5068V69.2744C8.62012 68.5407 8.75911 67.8867 9.03711 67.3125C9.31966 66.7337 9.71159 66.2826 10.2129 65.959C10.7188 65.6309 11.2656 65.4668 11.8535 65.4668C12.8151 65.4668 13.5625 65.7835 14.0957 66.417C14.6289 67.0505 14.8955 67.9574 14.8955 69.1377V69.6641H9.88477C9.90299 70.3932 10.1149 70.9834 10.5205 71.4346C10.9307 71.8812 11.4502 72.1045 12.0791 72.1045C12.5257 72.1045 12.904 72.0133 13.2139 71.8311C13.5238 71.6488 13.7949 71.4072 14.0273 71.1064L14.7998 71.708C14.18 72.6605 13.2503 73.1367 12.0107 73.1367ZM11.8535 66.5059C11.3431 66.5059 10.9147 66.6927 10.5684 67.0664C10.222 67.4355 10.0078 67.9551 9.92578 68.625H13.6309V68.5293C13.5944 67.8867 13.4212 67.39 13.1113 67.0391C12.8014 66.6836 12.3822 66.5059 11.8535 66.5059ZM17.5547 65.6035L17.5889 66.4238C18.1312 65.7858 18.8626 65.4668 19.7832 65.4668C20.8177 65.4668 21.5218 65.8633 21.8955 66.6562C22.1416 66.3008 22.4606 66.0137 22.8525 65.7949C23.249 65.5762 23.7161 65.4668 24.2539 65.4668C25.8763 65.4668 26.7012 66.3258 26.7285 68.0439V73H25.4639V68.1191C25.4639 67.5905 25.3431 67.1963 25.1016 66.9365C24.86 66.6722 24.4544 66.54 23.8848 66.54C23.4154 66.54 23.0257 66.6813 22.7158 66.9639C22.4059 67.2419 22.2259 67.6178 22.1758 68.0918V73H20.9043V68.1533C20.9043 67.0778 20.3779 66.54 19.3252 66.54C18.4958 66.54 17.9284 66.8932 17.623 67.5996V73H16.3584V65.6035H17.5547ZM32.9492 71.0381C32.9492 70.6963 32.8193 70.432 32.5596 70.2451C32.3044 70.0537 31.8555 69.8896 31.2129 69.7529C30.5749 69.6162 30.0667 69.4521 29.6885 69.2607C29.3148 69.0693 29.0368 68.8415 28.8545 68.5771C28.6768 68.3128 28.5879 67.9984 28.5879 67.6338C28.5879 67.0277 28.8431 66.515 29.3535 66.0957C29.8685 65.6764 30.5247 65.4668 31.3223 65.4668C32.1608 65.4668 32.8398 65.6833 33.3594 66.1162C33.8835 66.5492 34.1455 67.1029 34.1455 67.7773H32.874C32.874 67.431 32.7259 67.1325 32.4297 66.8818C32.138 66.6312 31.7689 66.5059 31.3223 66.5059C30.862 66.5059 30.502 66.6061 30.2422 66.8066C29.9824 67.0072 29.8525 67.2692 29.8525 67.5928C29.8525 67.8981 29.9733 68.1283 30.2148 68.2832C30.4564 68.4382 30.8916 68.5863 31.5205 68.7275C32.154 68.8688 32.6667 69.0374 33.0586 69.2334C33.4505 69.4294 33.7399 69.6663 33.9268 69.9443C34.1182 70.2178 34.2139 70.5527 34.2139 70.9492C34.2139 71.61 33.9495 72.141 33.4209 72.542C32.8923 72.9385 32.2064 73.1367 31.3633 73.1367C30.7708 73.1367 30.2467 73.0319 29.791 72.8223C29.3353 72.6126 28.9775 72.321 28.7178 71.9473C28.4626 71.569 28.335 71.1611 28.335 70.7236H29.5996C29.6224 71.1475 29.791 71.4847 30.1055 71.7354C30.4245 71.9814 30.8438 72.1045 31.3633 72.1045C31.8418 72.1045 32.2246 72.0088 32.5117 71.8174C32.8034 71.6214 32.9492 71.3617 32.9492 71.0381Z" fill="#27262B"/>
<defs>
<linearGradient id="paint0_linear" x1="1.37843e-07" y1="19.2043" x2="94.5194" y2="16.1644" gradientUnits="userSpaceOnUse">
<stop stop-color="#FCAF45"/>
<stop offset="0.197917" stop-color="#F77737"/>
<stop offset="0.395833" stop-color="#FD1D1D"/>
<stop offset="0.59375" stop-color="#C13584"/>
<stop offset="0.796875" stop-color="#833AB4"/>
<stop offset="1" stop-color="#405DE6"/>
</linearGradient>
</defs>
</svg>
