<svg width="102" height="63" viewBox="0 0 102 63" fill="none" xmlns="http://www.w3.org/2000/svg"><path d="M12.719 26.234h9.953V30H8.032V7.25h4.687v18.984zm17.343-4.25V30h-4.687V7.25h8.875c1.708 0 3.208.313 4.5.938 1.302.624 2.302 1.515 3 2.671.698 1.146 1.047 2.454 1.047 3.922 0 2.23-.766 3.99-2.297 5.281-1.52 1.282-3.63 1.922-6.328 1.922h-4.11zm0-3.797h4.188c1.24 0 2.182-.291 2.828-.875.656-.583.984-1.416.984-2.5 0-1.114-.328-2.015-.984-2.703-.656-.687-1.562-1.041-2.719-1.062h-4.297v7.14zm36.782 7.125h-8.219L57.062 30h-4.984l8.469-22.75h4.344L73.406 30h-4.984l-1.578-4.688zm-6.953-3.796h5.687L62.718 13l-2.827 8.516zm24.843-4.188a12.274 12.274 0 00-1.625-.125c-1.708 0-2.828.578-3.359 1.735V30h-4.516V13.094H79.5l.125 2.015c.906-1.552 2.162-2.328 3.766-2.328.5 0 .968.068 1.406.203l-.063 4.344zm8.375-8.39v4.156H96v3.312h-2.89v8.438c0 .625.12 1.073.359 1.343.24.271.698.407 1.375.407.5 0 .943-.037 1.328-.11v3.422a9.294 9.294 0 01-2.734.407c-3.167 0-4.782-1.6-4.844-4.797v-9.11h-2.469v-3.312h2.469V8.938h4.515z" fill="#F5F2FF"/><path d="M7.297 39.2c.961 0 1.75.317 2.366.952.616.635.924 1.447.924 2.436 0 .98-.308 1.787-.924 2.422-.616.635-1.405.952-2.366.952h-2.24V49H3.783v-9.8h3.514zm-.07 5.614c.607 0 1.106-.21 1.498-.63.392-.42.588-.952.588-1.596 0-.653-.196-1.19-.588-1.61-.392-.42-.891-.63-1.498-.63h-2.17v4.466h2.17zm7.45 4.354c-1.027 0-1.844-.322-2.45-.966-.607-.653-.91-1.465-.91-2.436 0-.97.303-1.778.91-2.422.606-.644 1.422-.966 2.45-.966 1.017 0 1.829.327 2.435.98.616.644.924 1.447.924 2.408 0 .97-.308 1.783-.924 2.436-.606.644-1.418.966-2.436.966zm-1.583-1.736c.392.43.92.644 1.582.644.663 0 1.185-.215 1.568-.644.383-.439.574-.994.574-1.666 0-.663-.191-1.209-.574-1.638-.383-.439-.905-.658-1.568-.658-.662 0-1.19.22-1.582.658-.383.43-.574.98-.574 1.652 0 .663.191 1.213.574 1.652zm9.29 1.736c-.98 0-1.76-.308-2.338-.924-.58-.625-.869-1.447-.869-2.464s.29-1.834.869-2.45c.578-.625 1.358-.938 2.338-.938.867 0 1.567.22 2.1.658.531.43.835 1.008.91 1.736h-1.218c-.168-.868-.766-1.302-1.792-1.302-.626 0-1.116.205-1.47.616-.355.401-.533.961-.533 1.68s.178 1.283.532 1.694c.355.401.845.602 1.47.602 1.018 0 1.615-.42 1.793-1.26h1.218c-.075.719-.378 1.293-.91 1.722-.533.42-1.233.63-2.1.63zM32.723 49h-1.218v-5.432h-3.318V49h-1.218v-6.454h5.754V49zm6.63-4.508l-3.318 3.99V49h-1.218v-6.454h1.218v4.564l3.318-4.018v-.546h1.218V49h-1.218v-4.508zm6 4.676c-.98 0-1.76-.308-2.339-.924-.578-.625-.868-1.447-.868-2.464s.29-1.834.868-2.45c.579-.625 1.358-.938 2.338-.938.868 0 1.568.22 2.1.658.532.43.836 1.008.91 1.736h-1.218c-.168-.868-.765-1.302-1.792-1.302-.625 0-1.115.205-1.47.616-.354.401-.532.961-.532 1.68s.178 1.283.532 1.694c.355.401.845.602 1.47.602 1.018 0 1.615-.42 1.792-1.26h1.218c-.074.719-.378 1.293-.91 1.722-.532.42-1.232.63-2.1.63zm4.585-6.622h1.218V44.8h1.68c.681 0 1.227.2 1.638.602.41.401.616.9.616 1.498 0 .579-.22 1.073-.658 1.484-.43.41-.966.616-1.61.616h-2.884v-6.454zm1.218 3.22v2.254h1.526c.354 0 .634-.103.84-.308a1.13 1.13 0 00.308-.812c0-.336-.103-.607-.308-.812-.196-.215-.467-.322-.812-.322h-1.554zm8.926-3.22h3.038c.728 0 1.246.168 1.554.504.308.336.462.728.462 1.176 0 .373-.14.695-.42.966-.27.27-.611.43-1.022.476.43.019.794.173 1.092.462.308.29.462.658.462 1.106 0 .448-.177.854-.532 1.218-.345.364-.9.546-1.666.546h-2.968v-6.454zm2.954 2.73a.832.832 0 00.63-.266.952.952 0 00.252-.658.92.92 0 00-.252-.658.828.828 0 00-.644-.28h-1.75v1.862h1.764zm-1.764.868v1.988h1.806a.916.916 0 00.672-.28.98.98 0 00.28-.7.98.98 0 00-.28-.7.877.877 0 00-.672-.308h-1.806zm11.4-.742c0 .177-.014.42-.043.728h-4.998c.01.616.197 1.101.56 1.456.364.345.855.518 1.47.518.86 0 1.428-.317 1.709-.952h1.218c-.112.597-.44 1.083-.98 1.456-.542.373-1.19.56-1.947.56-.989 0-1.778-.303-2.365-.91-.58-.616-.869-1.447-.869-2.492 0-1.027.29-1.848.868-2.464.58-.616 1.35-.924 2.31-.924.915 0 1.652.28 2.212.84.57.56.855 1.288.855 2.184zm-5.04-.21h3.835c0-.57-.168-1.017-.504-1.344-.326-.327-.783-.49-1.371-.49-.58 0-1.046.168-1.4.504-.346.336-.532.78-.56 1.33zm15.504 2.66h.644v2.828h-1.218V49h-8.316v-6.454h1.218v5.432h2.618v-5.432H79.3v5.432h2.632v-5.432h1.204v5.306zm7.829-2.45c0 .177-.014.42-.043.728h-4.998c.01.616.197 1.101.56 1.456.365.345.855.518 1.47.518.86 0 1.428-.317 1.709-.952h1.218c-.112.597-.44 1.083-.98 1.456-.542.373-1.19.56-1.947.56-.989 0-1.777-.303-2.365-.91-.58-.616-.868-1.447-.868-2.492 0-1.027.289-1.848.867-2.464.58-.616 1.35-.924 2.31-.924.915 0 1.653.28 2.213.84.569.56.853 1.288.853 2.184zm-5.04-.21h3.835c0-.57-.168-1.017-.504-1.344-.326-.327-.784-.49-1.371-.49-.58 0-1.046.168-1.4.504-.346.336-.532.78-.56 1.33zm11.164-3.598c-.438.355-1.008.532-1.708.532s-1.274-.177-1.722-.532c-.438-.364-.676-.854-.714-1.47h1.036c.028.355.168.625.42.812.262.187.588.28.98.28.402 0 .728-.093.98-.28.262-.187.406-.457.434-.812h1.036c-.046.616-.294 1.106-.742 1.47zm-.014 2.898l-3.318 3.99V49H92.54v-6.454h1.218v4.564l3.318-4.018v-.546h1.218V49h-1.218v-4.508zm-71.203 12l-3.318 3.99V61h-1.218v-6.454h1.218v4.564l3.318-4.018v-.546h1.218V61h-1.218v-4.508zm9.695 4.676c-1.027 0-1.843-.322-2.45-.966-.607-.653-.91-1.465-.91-2.436 0-.97.303-1.778.91-2.422.607-.644 1.423-.966 2.45-.966 1.017 0 1.83.327 2.436.98.616.644.924 1.447.924 2.408 0 .97-.308 1.783-.924 2.436-.607.644-1.419.966-2.436.966zm-1.582-1.736c.392.43.92.644 1.582.644.663 0 1.185-.215 1.568-.644.383-.439.574-.994.574-1.666 0-.663-.192-1.209-.574-1.638-.383-.439-.905-.658-1.568-.658s-1.19.22-1.582.658c-.383.43-.574.98-.574 1.652 0 .663.191 1.213.574 1.652zm11.858.42h.644v2.828h-1.218V61h-4.466v1.68h-1.274v-2.828h.644c.401-.224.602-.775.602-1.652v-3.654h5.068v5.306zm-4.326.126h3.108v-4.41h-2.632v2.576c0 .737-.159 1.349-.476 1.834zm12.137-2.576c0 .177-.014.42-.042.728h-4.998c.01.616.196 1.101.56 1.456.364.345.854.518 1.47.518.859 0 1.428-.317 1.708-.952h1.218c-.112.597-.439 1.083-.98 1.456-.541.373-1.19.56-1.946.56-.99 0-1.778-.303-2.366-.91-.579-.616-.868-1.447-.868-2.492 0-1.027.29-1.848.868-2.464.579-.616 1.349-.924 2.31-.924.915 0 1.652.28 2.212.84.57.56.854 1.288.854 2.184zm-5.04-.21h3.836c0-.57-.168-1.017-.504-1.344-.327-.327-.784-.49-1.372-.49-.579 0-1.045.168-1.4.504-.345.336-.532.78-.56 1.33zM64.017 61H62.49l-2.744-3.038V61h-1.218v-3.038L55.785 61h-1.526l3.052-3.346h-.084c-.215 0-.401-.047-.56-.14-.15-.103-.318-.299-.504-.588l-.588-.854c-.14-.187-.266-.313-.378-.378a.675.675 0 00-.406-.112h-.28v-1.106h.518c.317 0 .57.06.756.182.196.121.401.34.616.658l1.05 1.47c.252.373.532.56.84.56h.238v-2.8h1.218v2.8h.238c.308 0 .588-.187.84-.56l1.05-1.47c.215-.317.415-.537.602-.658.196-.121.453-.182.77-.182h.518v1.106h-.28a.74.74 0 00-.42.112c-.103.065-.224.191-.364.378l-.588.854c-.187.29-.36.485-.518.588-.15.093-.331.14-.546.14h-.084L64.017 61zm7.092-1.148h.644v2.828h-1.218V61h-4.466v1.68h-1.274v-2.828h.644c.401-.224.602-.775.602-1.652v-3.654h5.068v5.306zm-4.326.126h3.108v-4.41h-2.632v2.576c0 .737-.159 1.349-.476 1.834zm6.616-5.432h1.218V56.8h1.68c.681 0 1.227.2 1.638.602.41.401.616.9.616 1.498 0 .579-.22 1.073-.658 1.484-.43.41-.966.616-1.61.616h-2.884v-6.454zM79.447 61v-6.454h1.218V61h-1.218zm-4.83-3.234v2.254h1.526c.354 0 .634-.103.84-.308a1.13 1.13 0 00.308-.812c0-.336-.103-.607-.308-.812-.196-.215-.467-.322-.812-.322h-1.554z" fill="#fff"/></svg>