<svg width="102" height="74" viewBox="0 0 102 74" fill="none" xmlns="http://www.w3.org/2000/svg">
<path d="M12.7188 26.2344H22.6719V30H8.03125V7.25H12.7188V26.2344ZM30.0625 21.9844V30H25.375V7.25H34.25C35.9583 7.25 37.4583 7.5625 38.75 8.1875C40.0521 8.8125 41.0521 9.70312 41.75 10.8594C42.4479 12.0052 42.7969 13.3125 42.7969 14.7812C42.7969 17.0104 42.0312 18.7708 40.5 20.0625C38.9792 21.3438 36.8698 21.9844 34.1719 21.9844H30.0625ZM30.0625 18.1875H34.25C35.4896 18.1875 36.4323 17.8958 37.0781 17.3125C37.7344 16.7292 38.0625 15.8958 38.0625 14.8125C38.0625 13.6979 37.7344 12.7969 37.0781 12.1094C36.4219 11.4219 35.5156 11.0677 34.3594 11.0469H30.0625V18.1875ZM66.8438 25.3125H58.625L57.0625 30H52.0781L60.5469 7.25H64.8906L73.4062 30H68.4219L66.8438 25.3125ZM59.8906 21.5156H65.5781L62.7188 13L59.8906 21.5156ZM84.7344 17.3281C84.1198 17.2448 83.5781 17.2031 83.1094 17.2031C81.401 17.2031 80.2812 17.7812 79.75 18.9375V30H75.2344V13.0938H79.5L79.625 15.1094C80.5312 13.5573 81.7865 12.7812 83.3906 12.7812C83.8906 12.7812 84.3594 12.849 84.7969 12.9844L84.7344 17.3281ZM93.1094 8.9375V13.0938H96V16.4062H93.1094V24.8438C93.1094 25.4688 93.2292 25.9167 93.4688 26.1875C93.7083 26.4583 94.1667 26.5938 94.8438 26.5938C95.3438 26.5938 95.7865 26.5573 96.1719 26.4844V29.9062C95.2865 30.1771 94.375 30.3125 93.4375 30.3125C90.2708 30.3125 88.6562 28.7135 88.5938 25.5156V16.4062H86.125V13.0938H88.5938V8.9375H93.1094Z" fill="#F5F2FF"/>
<path d="M17.0186 49V38.9785H20.7988C21.4642 38.9785 21.9723 39.0104 22.3232 39.0742C22.8154 39.1562 23.2279 39.3135 23.5605 39.5459C23.8932 39.7738 24.1598 40.0951 24.3604 40.5098C24.5654 40.9245 24.668 41.3802 24.668 41.877C24.668 42.7292 24.3968 43.4515 23.8545 44.0439C23.3122 44.6318 22.3324 44.9258 20.915 44.9258H18.3447V49H17.0186ZM18.3447 43.7432H20.9355C21.7923 43.7432 22.4007 43.5837 22.7607 43.2646C23.1208 42.9456 23.3008 42.4967 23.3008 41.918C23.3008 41.4987 23.1937 41.141 22.9795 40.8447C22.7699 40.5439 22.4919 40.3457 22.1455 40.25C21.9222 40.1908 21.5098 40.1611 20.9082 40.1611H18.3447V43.7432ZM30.9365 48.1045C30.4808 48.4919 30.041 48.7653 29.6172 48.9248C29.1979 49.0843 28.7467 49.1641 28.2637 49.1641C27.4661 49.1641 26.8532 48.9704 26.4248 48.583C25.9964 48.1911 25.7822 47.6921 25.7822 47.0859C25.7822 46.7305 25.862 46.4069 26.0215 46.1152C26.1855 45.819 26.3975 45.582 26.6572 45.4043C26.9215 45.2266 27.2178 45.0921 27.5459 45.001C27.7874 44.9372 28.152 44.8757 28.6396 44.8164C29.6331 44.6979 30.3646 44.5566 30.834 44.3926C30.8385 44.224 30.8408 44.1169 30.8408 44.0713C30.8408 43.57 30.7246 43.2168 30.4922 43.0117C30.1777 42.7337 29.7106 42.5947 29.0908 42.5947C28.512 42.5947 28.0837 42.6973 27.8057 42.9023C27.5322 43.1029 27.3294 43.4606 27.1973 43.9756L25.9941 43.8115C26.1035 43.2965 26.2835 42.8818 26.5342 42.5674C26.7848 42.2484 27.1471 42.0046 27.6211 41.8359C28.0951 41.6628 28.6442 41.5762 29.2686 41.5762C29.8883 41.5762 30.3919 41.6491 30.7793 41.7949C31.1667 41.9408 31.4515 42.1253 31.6338 42.3486C31.8161 42.5674 31.9437 42.8454 32.0166 43.1826C32.0576 43.3923 32.0781 43.7705 32.0781 44.3174V45.958C32.0781 47.1019 32.1032 47.8265 32.1533 48.1318C32.208 48.4326 32.3128 48.722 32.4678 49H31.1826C31.055 48.7448 30.973 48.4463 30.9365 48.1045ZM30.834 45.3564C30.3874 45.5387 29.7174 45.6937 28.8242 45.8213C28.3184 45.8942 27.9606 45.9762 27.751 46.0674C27.5413 46.1585 27.3796 46.293 27.2656 46.4707C27.1517 46.6439 27.0947 46.8376 27.0947 47.0518C27.0947 47.3799 27.2178 47.6533 27.4639 47.8721C27.7145 48.0908 28.0791 48.2002 28.5576 48.2002C29.0316 48.2002 29.4531 48.0977 29.8223 47.8926C30.1914 47.6829 30.4626 47.3981 30.6357 47.0381C30.7679 46.7601 30.834 46.3499 30.834 45.8076V45.3564ZM33.999 40.3936V38.9785H35.2295V40.3936H33.999ZM33.999 49V41.7402H35.2295V49H33.999ZM37.1094 49V41.7402H38.2168V42.7725C38.75 41.9749 39.5202 41.5762 40.5273 41.5762C40.9648 41.5762 41.3659 41.6559 41.7305 41.8154C42.0996 41.9704 42.3753 42.1755 42.5576 42.4307C42.7399 42.6859 42.8675 42.9889 42.9404 43.3398C42.986 43.5677 43.0088 43.9665 43.0088 44.5361V49H41.7783V44.584C41.7783 44.0827 41.7305 43.709 41.6348 43.4629C41.5391 43.2122 41.3682 43.014 41.1221 42.8682C40.8805 42.7178 40.5957 42.6426 40.2676 42.6426C39.7435 42.6426 39.29 42.8089 38.9072 43.1416C38.529 43.4743 38.3398 44.1055 38.3398 45.0352V49H37.1094ZM47.5889 47.8994L47.7666 48.9863C47.4202 49.0592 47.1104 49.0957 46.8369 49.0957C46.3903 49.0957 46.0439 49.0251 45.7979 48.8838C45.5518 48.7425 45.3786 48.5579 45.2783 48.3301C45.1781 48.0977 45.1279 47.6123 45.1279 46.874V42.6973H44.2256V41.7402H45.1279V39.9424L46.3516 39.2041V41.7402H47.5889V42.6973H46.3516V46.9424C46.3516 47.2933 46.3721 47.5189 46.4131 47.6191C46.4587 47.7194 46.5293 47.7992 46.625 47.8584C46.7253 47.9176 46.8665 47.9473 47.0488 47.9473C47.1855 47.9473 47.3656 47.9313 47.5889 47.8994ZM48.8057 40.3936V38.9785H50.0361V40.3936H48.8057ZM48.8057 49V41.7402H50.0361V49H48.8057ZM51.916 49V41.7402H53.0234V42.7725C53.5566 41.9749 54.3268 41.5762 55.334 41.5762C55.7715 41.5762 56.1725 41.6559 56.5371 41.8154C56.9062 41.9704 57.182 42.1755 57.3643 42.4307C57.5465 42.6859 57.6742 42.9889 57.7471 43.3398C57.7926 43.5677 57.8154 43.9665 57.8154 44.5361V49H56.585V44.584C56.585 44.0827 56.5371 43.709 56.4414 43.4629C56.3457 43.2122 56.1748 43.014 55.9287 42.8682C55.6872 42.7178 55.4023 42.6426 55.0742 42.6426C54.5501 42.6426 54.0967 42.8089 53.7139 43.1416C53.3356 43.4743 53.1465 44.1055 53.1465 45.0352V49H51.916ZM59.4834 49.6016L60.6797 49.7793C60.7298 50.1484 60.8688 50.4173 61.0967 50.5859C61.402 50.8138 61.819 50.9277 62.3477 50.9277C62.9173 50.9277 63.3571 50.8138 63.667 50.5859C63.9769 50.3581 64.1865 50.0391 64.2959 49.6289C64.3597 49.3783 64.3893 48.8519 64.3848 48.0498C63.847 48.6833 63.1771 49 62.375 49C61.377 49 60.6045 48.64 60.0576 47.9199C59.5107 47.1999 59.2373 46.3363 59.2373 45.3291C59.2373 44.6364 59.3626 43.9984 59.6133 43.415C59.8639 42.8271 60.2262 42.3737 60.7002 42.0547C61.1787 41.7357 61.7393 41.5762 62.3818 41.5762C63.2386 41.5762 63.945 41.9225 64.501 42.6152V41.7402H65.6357V48.0156C65.6357 49.1458 65.5195 49.9456 65.2871 50.415C65.0592 50.889 64.6947 51.2627 64.1934 51.5361C63.6966 51.8096 63.0837 51.9463 62.3545 51.9463C61.4886 51.9463 60.7891 51.7503 60.2559 51.3584C59.7227 50.971 59.4652 50.3854 59.4834 49.6016ZM60.502 45.2402C60.502 46.1927 60.6911 46.8877 61.0693 47.3252C61.4476 47.7627 61.9215 47.9814 62.4912 47.9814C63.0563 47.9814 63.5303 47.765 63.9131 47.332C64.2959 46.8945 64.4873 46.2109 64.4873 45.2812C64.4873 44.3926 64.2891 43.7227 63.8926 43.2715C63.5007 42.8203 63.0267 42.5947 62.4707 42.5947C61.9238 42.5947 61.459 42.818 61.0762 43.2646C60.6934 43.7067 60.502 44.3652 60.502 45.2402ZM70.9404 45.3701C70.9404 44.0257 71.3141 43.0299 72.0615 42.3828C72.6859 41.8451 73.4469 41.5762 74.3447 41.5762C75.3428 41.5762 76.1585 41.9043 76.792 42.5605C77.4255 43.2122 77.7422 44.1146 77.7422 45.2676C77.7422 46.2018 77.6009 46.9378 77.3184 47.4756C77.0404 48.0088 76.6325 48.4235 76.0947 48.7197C75.5615 49.016 74.9782 49.1641 74.3447 49.1641C73.3285 49.1641 72.5059 48.8382 71.877 48.1865C71.2526 47.5348 70.9404 46.596 70.9404 45.3701ZM72.2051 45.3701C72.2051 46.2998 72.4079 46.9971 72.8135 47.4619C73.2191 47.9222 73.7295 48.1523 74.3447 48.1523C74.9554 48.1523 75.4635 47.9199 75.8691 47.4551C76.2747 46.9902 76.4775 46.2816 76.4775 45.3291C76.4775 44.4313 76.2725 43.7523 75.8623 43.292C75.4567 42.8271 74.9508 42.5947 74.3447 42.5947C73.7295 42.5947 73.2191 42.8249 72.8135 43.2852C72.4079 43.7454 72.2051 44.4404 72.2051 45.3701ZM79.1914 49V41.7402H80.2988V42.7725C80.832 41.9749 81.6022 41.5762 82.6094 41.5762C83.0469 41.5762 83.4479 41.6559 83.8125 41.8154C84.1816 41.9704 84.4574 42.1755 84.6396 42.4307C84.8219 42.6859 84.9495 42.9889 85.0225 43.3398C85.068 43.5677 85.0908 43.9665 85.0908 44.5361V49H83.8604V44.584C83.8604 44.0827 83.8125 43.709 83.7168 43.4629C83.6211 43.2122 83.4502 43.014 83.2041 42.8682C82.9626 42.7178 82.6777 42.6426 82.3496 42.6426C81.8255 42.6426 81.3721 42.8089 80.9893 43.1416C80.611 43.4743 80.4219 44.1055 80.4219 45.0352V49H79.1914ZM20.8262 58.3408L22.0361 58.498C21.904 59.332 21.5645 59.986 21.0176 60.46C20.4753 60.9294 19.8076 61.1641 19.0146 61.1641C18.0212 61.1641 17.2214 60.8405 16.6152 60.1934C16.0137 59.5417 15.7129 58.6097 15.7129 57.3975C15.7129 56.6136 15.8428 55.9277 16.1025 55.3398C16.3623 54.752 16.7565 54.3122 17.2852 54.0205C17.8184 53.7243 18.3971 53.5762 19.0215 53.5762C19.8099 53.5762 20.4548 53.7767 20.9561 54.1777C21.4574 54.5742 21.7786 55.1393 21.9199 55.873L20.7236 56.0576C20.6097 55.57 20.4069 55.2031 20.1152 54.957C19.8281 54.7109 19.4795 54.5879 19.0693 54.5879C18.4495 54.5879 17.946 54.8112 17.5586 55.2578C17.1712 55.6999 16.9775 56.4017 16.9775 57.3633C16.9775 58.3385 17.1644 59.0472 17.5381 59.4893C17.9118 59.9313 18.3994 60.1523 19.001 60.1523C19.484 60.1523 19.8874 60.0042 20.2109 59.708C20.5345 59.4118 20.7396 58.9561 20.8262 58.3408ZM23.0615 61V50.9785H24.292V61H23.0615ZM25.748 57.3701C25.748 56.0257 26.1217 55.0299 26.8691 54.3828C27.4935 53.8451 28.2546 53.5762 29.1523 53.5762C30.1504 53.5762 30.9661 53.9043 31.5996 54.5605C32.2331 55.2122 32.5498 56.1146 32.5498 57.2676C32.5498 58.2018 32.4085 58.9378 32.126 59.4756C31.848 60.0088 31.4401 60.4235 30.9023 60.7197C30.3691 61.016 29.7858 61.1641 29.1523 61.1641C28.1361 61.1641 27.3135 60.8382 26.6846 60.1865C26.0602 59.5348 25.748 58.596 25.748 57.3701ZM27.0127 57.3701C27.0127 58.2998 27.2155 58.9971 27.6211 59.4619C28.0267 59.9222 28.5371 60.1523 29.1523 60.1523C29.763 60.1523 30.2712 59.9199 30.6768 59.4551C31.0824 58.9902 31.2852 58.2816 31.2852 57.3291C31.2852 56.4313 31.0801 55.7523 30.6699 55.292C30.2643 54.8271 29.7585 54.5947 29.1523 54.5947C28.5371 54.5947 28.0267 54.8249 27.6211 55.2852C27.2155 55.7454 27.0127 56.4404 27.0127 57.3701ZM36.6855 59.8994L36.8633 60.9863C36.5169 61.0592 36.207 61.0957 35.9336 61.0957C35.487 61.0957 35.1406 61.0251 34.8945 60.8838C34.6484 60.7425 34.4753 60.5579 34.375 60.3301C34.2747 60.0977 34.2246 59.6123 34.2246 58.874V54.6973H33.3223V53.7402H34.2246V51.9424L35.4482 51.2041V53.7402H36.6855V54.6973H35.4482V58.9424C35.4482 59.2933 35.4688 59.5189 35.5098 59.6191C35.5553 59.7194 35.626 59.7992 35.7217 59.8584C35.8219 59.9176 35.9632 59.9473 36.1455 59.9473C36.2822 59.9473 36.4622 59.9313 36.6855 59.8994ZM37.8955 61V50.9785H39.126V54.5742C39.7002 53.9089 40.4248 53.5762 41.2998 53.5762C41.8376 53.5762 42.3047 53.6833 42.7012 53.8975C43.0977 54.1071 43.3802 54.3988 43.5488 54.7725C43.722 55.1462 43.8086 55.6885 43.8086 56.3994V61H42.5781V56.3994C42.5781 55.7842 42.4437 55.3376 42.1748 55.0596C41.9105 54.777 41.5345 54.6357 41.0469 54.6357C40.6823 54.6357 40.3382 54.7314 40.0146 54.9229C39.6956 55.1097 39.4678 55.3649 39.3311 55.6885C39.1943 56.012 39.126 56.4587 39.126 57.0283V61H37.8955ZM50.6582 58.6621L51.9297 58.8193C51.7292 59.5622 51.3577 60.1387 50.8154 60.5488C50.2731 60.959 49.5804 61.1641 48.7373 61.1641C47.6755 61.1641 46.8324 60.8382 46.208 60.1865C45.5882 59.5303 45.2783 58.612 45.2783 57.4316C45.2783 56.2103 45.5928 55.2624 46.2217 54.5879C46.8506 53.9134 47.6663 53.5762 48.6689 53.5762C49.6396 53.5762 50.4326 53.9066 51.0479 54.5674C51.6631 55.2282 51.9707 56.1579 51.9707 57.3564C51.9707 57.4294 51.9684 57.5387 51.9639 57.6846H46.5498C46.5954 58.4821 46.821 59.0928 47.2266 59.5166C47.6322 59.9404 48.138 60.1523 48.7441 60.1523C49.1953 60.1523 49.5804 60.0339 49.8994 59.7969C50.2184 59.5599 50.4714 59.1816 50.6582 58.6621ZM46.6182 56.6729H50.6719C50.6172 56.0622 50.4622 55.6042 50.207 55.2988C49.8151 54.8249 49.307 54.5879 48.6826 54.5879C48.1175 54.5879 47.6413 54.777 47.2539 55.1553C46.8711 55.5335 46.6592 56.0394 46.6182 56.6729ZM52.9893 58.833L54.2061 58.6416C54.2744 59.1292 54.4635 59.5029 54.7734 59.7627C55.0879 60.0225 55.5254 60.1523 56.0859 60.1523C56.651 60.1523 57.0703 60.0384 57.3438 59.8105C57.6172 59.5781 57.7539 59.307 57.7539 58.9971C57.7539 58.7191 57.6331 58.5003 57.3916 58.3408C57.223 58.2314 56.8037 58.0924 56.1338 57.9238C55.2314 57.696 54.6048 57.5 54.2539 57.3359C53.9076 57.1673 53.6432 56.9372 53.4609 56.6455C53.2832 56.3493 53.1943 56.0234 53.1943 55.668C53.1943 55.3444 53.2673 55.0459 53.4131 54.7725C53.5635 54.4945 53.7663 54.2643 54.0215 54.082C54.2129 53.9408 54.4727 53.8223 54.8008 53.7266C55.1335 53.6263 55.4889 53.5762 55.8672 53.5762C56.4368 53.5762 56.9359 53.6582 57.3643 53.8223C57.7972 53.9863 58.1162 54.2096 58.3213 54.4922C58.5264 54.7702 58.6676 55.1439 58.7451 55.6133L57.542 55.7773C57.4873 55.4036 57.3278 55.112 57.0635 54.9023C56.8037 54.6927 56.4346 54.5879 55.9561 54.5879C55.391 54.5879 54.9876 54.6813 54.7461 54.8682C54.5046 55.055 54.3838 55.2738 54.3838 55.5244C54.3838 55.6839 54.4339 55.8275 54.5342 55.9551C54.6344 56.0872 54.7917 56.1966 55.0059 56.2832C55.1289 56.3288 55.4912 56.4336 56.0928 56.5977C56.9632 56.8301 57.5693 57.0215 57.9111 57.1719C58.2575 57.3177 58.5286 57.5319 58.7246 57.8145C58.9206 58.097 59.0186 58.4479 59.0186 58.8672C59.0186 59.2773 58.8978 59.6647 58.6562 60.0293C58.4193 60.3893 58.0752 60.6696 57.624 60.8701C57.1729 61.0661 56.6624 61.1641 56.0928 61.1641C55.1494 61.1641 54.4294 60.9681 53.9326 60.5762C53.4404 60.1842 53.126 59.6032 52.9893 58.833ZM69.1152 60.1045C68.6595 60.4919 68.2197 60.7653 67.7959 60.9248C67.3766 61.0843 66.9255 61.1641 66.4424 61.1641C65.6449 61.1641 65.0319 60.9704 64.6035 60.583C64.1751 60.1911 63.9609 59.6921 63.9609 59.0859C63.9609 58.7305 64.0407 58.4069 64.2002 58.1152C64.3643 57.819 64.5762 57.582 64.8359 57.4043C65.1003 57.2266 65.3965 57.0921 65.7246 57.001C65.9661 56.9372 66.3307 56.8757 66.8184 56.8164C67.8118 56.6979 68.5433 56.5566 69.0127 56.3926C69.0173 56.224 69.0195 56.1169 69.0195 56.0713C69.0195 55.57 68.9033 55.2168 68.6709 55.0117C68.3564 54.7337 67.8893 54.5947 67.2695 54.5947C66.6908 54.5947 66.2624 54.6973 65.9844 54.9023C65.7109 55.1029 65.5081 55.4606 65.376 55.9756L64.1729 55.8115C64.2822 55.2965 64.4622 54.8818 64.7129 54.5674C64.9635 54.2484 65.3258 54.0046 65.7998 53.8359C66.2738 53.6628 66.8229 53.5762 67.4473 53.5762C68.0671 53.5762 68.5706 53.6491 68.958 53.7949C69.3454 53.9408 69.6302 54.1253 69.8125 54.3486C69.9948 54.5674 70.1224 54.8454 70.1953 55.1826C70.2363 55.3923 70.2568 55.7705 70.2568 56.3174V57.958C70.2568 59.1019 70.2819 59.8265 70.332 60.1318C70.3867 60.4326 70.4915 60.722 70.6465 61H69.3613C69.2337 60.7448 69.1517 60.4463 69.1152 60.1045ZM69.0127 57.3564C68.5661 57.5387 67.8962 57.6937 67.0029 57.8213C66.4971 57.8942 66.1393 57.9762 65.9297 58.0674C65.7201 58.1585 65.5583 58.293 65.4443 58.4707C65.3304 58.6439 65.2734 58.8376 65.2734 59.0518C65.2734 59.3799 65.3965 59.6533 65.6426 59.8721C65.8932 60.0908 66.2578 60.2002 66.7363 60.2002C67.2103 60.2002 67.6318 60.0977 68.001 59.8926C68.3701 59.6829 68.6413 59.3981 68.8145 59.0381C68.9466 58.7601 69.0127 58.3499 69.0127 57.8076V57.3564ZM72.1709 61V53.7402H73.2783V54.7725C73.8115 53.9749 74.5817 53.5762 75.5889 53.5762C76.0264 53.5762 76.4274 53.6559 76.792 53.8154C77.1611 53.9704 77.4368 54.1755 77.6191 54.4307C77.8014 54.6859 77.929 54.9889 78.002 55.3398C78.0475 55.5677 78.0703 55.9665 78.0703 56.5361V61H76.8398V56.584C76.8398 56.0827 76.792 55.709 76.6963 55.4629C76.6006 55.2122 76.4297 55.014 76.1836 54.8682C75.9421 54.7178 75.6572 54.6426 75.3291 54.6426C74.805 54.6426 74.3516 54.8089 73.9688 55.1416C73.5905 55.4743 73.4014 56.1055 73.4014 57.0352V61H72.1709ZM84.6738 61V60.084C84.2135 60.804 83.5368 61.1641 82.6436 61.1641C82.0648 61.1641 81.5316 61.0046 81.0439 60.6855C80.5609 60.3665 80.1849 59.9222 79.916 59.3525C79.6517 58.7783 79.5195 58.1198 79.5195 57.377C79.5195 56.6523 79.6403 55.9961 79.8818 55.4082C80.1234 54.8158 80.4857 54.3623 80.9688 54.0479C81.4518 53.7334 81.9919 53.5762 82.5889 53.5762C83.0264 53.5762 83.416 53.6696 83.7578 53.8564C84.0996 54.0387 84.3776 54.278 84.5918 54.5742V50.9785H85.8154V61H84.6738ZM80.7842 57.377C80.7842 58.3066 80.9801 59.0016 81.3721 59.4619C81.764 59.9222 82.2266 60.1523 82.7598 60.1523C83.2975 60.1523 83.7533 59.9336 84.127 59.4961C84.5052 59.054 84.6943 58.3818 84.6943 57.4795C84.6943 56.486 84.5029 55.7568 84.1201 55.292C83.7373 54.8271 83.2656 54.5947 82.7051 54.5947C82.1582 54.5947 81.7002 54.818 81.3311 55.2646C80.9665 55.7113 80.7842 56.4154 80.7842 57.377ZM35.1953 64.3936V62.9785H36.4258V64.3936H35.1953ZM35.1953 73V65.7402H36.4258V73H35.1953ZM40.9922 71.8994L41.1699 72.9863C40.8236 73.0592 40.5137 73.0957 40.2402 73.0957C39.7936 73.0957 39.4473 73.0251 39.2012 72.8838C38.9551 72.7425 38.7819 72.5579 38.6816 72.3301C38.5814 72.0977 38.5312 71.6123 38.5312 70.874V66.6973H37.6289V65.7402H38.5312V63.9424L39.7549 63.2041V65.7402H40.9922V66.6973H39.7549V70.9424C39.7549 71.2933 39.7754 71.5189 39.8164 71.6191C39.862 71.7194 39.9326 71.7992 40.0283 71.8584C40.1286 71.9176 40.2699 71.9473 40.4521 71.9473C40.5889 71.9473 40.7689 71.9313 40.9922 71.8994ZM47.1719 70.6621L48.4434 70.8193C48.2428 71.5622 47.8714 72.1387 47.3291 72.5488C46.7868 72.959 46.0941 73.1641 45.251 73.1641C44.1891 73.1641 43.346 72.8382 42.7217 72.1865C42.1019 71.5303 41.792 70.612 41.792 69.4316C41.792 68.2103 42.1064 67.2624 42.7354 66.5879C43.3643 65.9134 44.18 65.5762 45.1826 65.5762C46.1533 65.5762 46.9463 65.9066 47.5615 66.5674C48.1768 67.2282 48.4844 68.1579 48.4844 69.3564C48.4844 69.4294 48.4821 69.5387 48.4775 69.6846H43.0635C43.109 70.4821 43.3346 71.0928 43.7402 71.5166C44.1458 71.9404 44.6517 72.1523 45.2578 72.1523C45.709 72.1523 46.0941 72.0339 46.4131 71.7969C46.7321 71.5599 46.985 71.1816 47.1719 70.6621ZM43.1318 68.6729H47.1855C47.1309 68.0622 46.9759 67.6042 46.7207 67.2988C46.3288 66.8249 45.8206 66.5879 45.1963 66.5879C44.6312 66.5879 44.1549 66.777 43.7676 67.1553C43.3848 67.5335 43.1729 68.0394 43.1318 68.6729ZM49.9951 73V65.7402H51.0957V66.7588C51.3236 66.4033 51.6266 66.1185 52.0049 65.9043C52.3831 65.6855 52.8138 65.5762 53.2969 65.5762C53.8346 65.5762 54.2744 65.6878 54.6162 65.9111C54.9626 66.1344 55.2064 66.4466 55.3477 66.8477C55.9219 66 56.6693 65.5762 57.5898 65.5762C58.3099 65.5762 58.8636 65.7767 59.251 66.1777C59.6383 66.5742 59.832 67.1872 59.832 68.0166V73H58.6084V68.4268C58.6084 67.9346 58.5674 67.5814 58.4854 67.3672C58.4079 67.1484 58.2643 66.973 58.0547 66.8408C57.8451 66.7087 57.599 66.6426 57.3164 66.6426C56.806 66.6426 56.3822 66.8135 56.0449 67.1553C55.7077 67.4925 55.5391 68.0348 55.5391 68.7822V73H54.3086V68.2832C54.3086 67.7363 54.2083 67.3262 54.0078 67.0527C53.8073 66.7793 53.4792 66.6426 53.0234 66.6426C52.6771 66.6426 52.3558 66.7337 52.0596 66.916C51.7679 67.0983 51.556 67.3649 51.4238 67.7158C51.2917 68.0667 51.2256 68.5726 51.2256 69.2334V73H49.9951ZM61.165 70.833L62.3818 70.6416C62.4502 71.1292 62.6393 71.5029 62.9492 71.7627C63.2637 72.0225 63.7012 72.1523 64.2617 72.1523C64.8268 72.1523 65.2461 72.0384 65.5195 71.8105C65.793 71.5781 65.9297 71.307 65.9297 70.9971C65.9297 70.7191 65.8089 70.5003 65.5674 70.3408C65.3988 70.2314 64.9795 70.0924 64.3096 69.9238C63.4072 69.696 62.7806 69.5 62.4297 69.3359C62.0833 69.1673 61.819 68.9372 61.6367 68.6455C61.459 68.3493 61.3701 68.0234 61.3701 67.668C61.3701 67.3444 61.443 67.0459 61.5889 66.7725C61.7393 66.4945 61.9421 66.2643 62.1973 66.082C62.3887 65.9408 62.6484 65.8223 62.9766 65.7266C63.3092 65.6263 63.6647 65.5762 64.043 65.5762C64.6126 65.5762 65.1117 65.6582 65.54 65.8223C65.973 65.9863 66.292 66.2096 66.4971 66.4922C66.7021 66.7702 66.8434 67.1439 66.9209 67.6133L65.7178 67.7773C65.6631 67.4036 65.5036 67.112 65.2393 66.9023C64.9795 66.6927 64.6104 66.5879 64.1318 66.5879C63.5667 66.5879 63.1634 66.6813 62.9219 66.8682C62.6803 67.055 62.5596 67.2738 62.5596 67.5244C62.5596 67.6839 62.6097 67.8275 62.71 67.9551C62.8102 68.0872 62.9674 68.1966 63.1816 68.2832C63.3047 68.3288 63.667 68.4336 64.2686 68.5977C65.139 68.8301 65.7451 69.0215 66.0869 69.1719C66.4333 69.3177 66.7044 69.5319 66.9004 69.8145C67.0964 70.097 67.1943 70.4479 67.1943 70.8672C67.1943 71.2773 67.0736 71.6647 66.832 72.0293C66.5951 72.3893 66.251 72.6696 65.7998 72.8701C65.3486 73.0661 64.8382 73.1641 64.2686 73.1641C63.3252 73.1641 62.6051 72.9681 62.1084 72.5762C61.6162 72.1842 61.3018 71.6032 61.165 70.833Z" fill="white"/>
</svg>
