<svg width="80" height="80" viewBox="0 0 80 80" fill="none" xmlns="http://www.w3.org/2000/svg"><g clip-path="url(#clip0)"><path d="M80 13.72l-.002-.027a1.134 1.134 0 00-.007-.103l-.005-.038a1.076 1.076 0 00-.018-.092l-.01-.036a1.158 1.158 0 00-.03-.098l-.007-.018-3.178-8.138a2.11 2.11 0 00-1.977-1.35h-5.789a1.142 1.142 0 100 2.285h5.678l2.53 6.476H53.267l-1.499-6.476h8.834a1.142 1.142 0 100-2.285H14.387c-.88 0-1.657.53-1.977 1.35l-3.18 8.139-.006.018a1.117 1.117 0 00-.058.226l-.006.038a1.186 1.186 0 00-.007.103l-.001.026v16.787a1.142 1.142 0 102.284 0v-15.64h24.215V32.23a1.731 1.731 0 001.727 1.728 1.73 1.73 0 001.147-.434l6.05-5.36 6.05 5.36a1.73 1.73 0 001.856.282 1.731 1.731 0 001.02-1.576V14.866h24.213v51.238c0 .82-.667 1.487-1.487 1.487H55.283l-.002-.04a4.162 4.162 0 00-.014-.306 4.116 4.116 0 004.856-2.422 4.083 4.083 0 00-.148-3.424l-.025-.05a4.125 4.125 0 00-.146-.255l-.03-.048a4.148 4.148 0 00-.172-.248c0-.002-.002-.003-.003-.004a4.104 4.104 0 00-.188-.23c-.012-.014-.023-.028-.036-.041a4.033 4.033 0 00-.2-.209l-.042-.038a4.04 4.04 0 00-.468-.38l-.044-.03a4.15 4.15 0 00-.249-.154c-.007-.004-.013-.01-.02-.013a4.093 4.093 0 001.112-1.555 4.084 4.084 0 00-.018-3.146 4.08 4.08 0 00-2.236-2.212l-17.78-7.25 8.276-2.561a3.753 3.753 0 002.472-4.681 3.668 3.668 0 00-1.253-1.81 3.846 3.846 0 00-3.156-.74l-.016.003c-.063.014-6.407 1.44-13.034 2.733a339.343 339.343 0 01-1.53.295l-.188.036a304.036 304.036 0 01-1.557.29c-8.321 1.534-10.659 1.561-11.308 1.474l-.007-.002a2.395 2.395 0 01-.029-.004l-.018-.003-.014-.002a.882.882 0 01-.096-.023l-.187-.076.233-.572a2.26 2.26 0 00-.223-2.136 2.259 2.259 0 00-1.024-.828l-6.136-2.502a2.258 2.258 0 00-1.74.01c-.56.235-.995.675-1.224 1.237l-7.503 18.4a2.277 2.277 0 001.248 2.965L7.55 59.54a2.278 2.278 0 002.964-1.247l.057-.139 1.415.577h.002a12.55 12.55 0 015.041 3.762 14.844 14.844 0 005.96 4.448l1.592.649H12.924c-.82 0-1.487-.667-1.487-1.487v-2.89a1.142 1.142 0 10-2.284 0v2.89a3.776 3.776 0 003.771 3.771h17.262l14.715 6a4.08 4.08 0 001.547.305 4.117 4.117 0 003.811-2.559 4.085 4.085 0 00.28-1.991c.766.11 1.56.009 2.279-.302a4.073 4.073 0 001.767-1.453h21.644A3.776 3.776 0 0080 66.104V13.719zM39.73 6.104h9.693l1.499 6.476H38.23l1.498-6.476zm-3.844 6.476H11.968l2.53-6.476h22.886l-1.498 6.476zm15.33 18.413l-5.494-4.867a1.725 1.725 0 00-2.292 0l-5.494 4.867V14.866h13.28v16.128zM8.405 57.421l-6.116-2.494 7.495-18.38 6.116 2.494-7.495 18.38zm45.638 6.894l-1.31-.535h-.003l-.001-.001-13.655-5.568a1.142 1.142 0 10-.862 2.116l13.654 5.567c.057.024.112.05.166.078l.043.026c.038.02.075.042.11.066.018.011.034.024.05.036.031.023.063.045.093.07.018.014.034.03.052.046.026.023.053.046.079.071.017.017.032.036.049.054.023.025.046.049.068.075l.046.061c.02.026.04.051.058.078.015.022.028.045.042.068.017.026.034.052.049.079.013.024.024.05.037.075.013.026.027.053.039.08.011.026.02.053.03.08.011.027.022.054.031.081.01.028.016.056.024.084l.023.083c.006.028.01.057.015.085.005.029.011.057.015.086.004.028.005.058.008.086l.006.087v.087c0 .03 0 .059-.002.089-.002.028-.006.056-.01.085-.003.03-.005.06-.01.091l-.017.083-.02.092-.026.081-.03.092a.69.69 0 00-.028.062l-.005.015c-.179.412-.508.74-.938.925a1.934 1.934 0 01-1.488.019l-2.419-.986c-.011-.005-.023-.008-.034-.012l-.033-.016-11.106-4.528a1.142 1.142 0 10-.863 2.115l11.106 4.529.036.012.032.015a1.828 1.828 0 011 2.38 1.827 1.827 0 01-2.379 1.001l-14.92-6.084h-.003l-6.987-2.85a12.546 12.546 0 01-5.041-3.761 14.845 14.845 0 00-5.96-4.448h-.001l-1.417-.578 2.822-6.92 2.666-6.538.197.08c.185.076.449.183 1.16.21.887.04 2.356-.053 4.987-.425 1.79-.252 3.986-.618 6.549-1.09l.189-.034.363-.068.285-.053c.109-.02.218-.04.329-.062l.354-.067a323.124 323.124 0 01.728-.138l.228-.044.691-.134a529.242 529.242 0 0013.263-2.778c.029-.006.058-.01.086-.014.734-.108 1.453.316 1.663 1a1.462 1.462 0 01-.964 1.827l-11.325 3.506a1.142 1.142 0 00-.093 2.15L56.348 54.9c.451.184.804.533.993.983.19.45.192.946.008 1.397a1.827 1.827 0 01-1.68 1.137h-.01c-.056 0-.112-.002-.167-.008-.017-.001-.033-.005-.05-.006-.042-.006-.084-.01-.126-.019-.027-.005-.053-.013-.08-.019-.03-.007-.063-.014-.094-.023-.032-.01-.064-.022-.096-.034-.025-.009-.05-.016-.076-.026l-13.655-5.568a1.142 1.142 0 10-.863 2.115l16.556 6.75a1.811 1.811 0 01.993.982 1.811 1.811 0 01-.313 1.913 1.793 1.793 0 01-.182.18l-.03.027a1.83 1.83 0 01-1.847.28l-1.587-.647z" fill="url(#paint0_linear)"/></g><defs><linearGradient id="paint0_linear" x1="0" y1="40.389" x2="83.162" y2="39.154" gradientUnits="userSpaceOnUse"><stop stop-color="#FCAF45"/><stop offset=".198" stop-color="#F77737"/><stop offset=".396" stop-color="#FD1D1D"/><stop offset=".594" stop-color="#C13584"/><stop offset=".797" stop-color="#833AB4"/><stop offset="1" stop-color="#405DE6"/></linearGradient><clipPath id="clip0"><path fill="#fff" d="M0 0h80v80H0z"/></clipPath></defs></svg>