<svg width="50" height="50" viewBox="0 0 50 50" fill="none" xmlns="http://www.w3.org/2000/svg"><path d="M33 24.023a.977.977 0 100-1.953.977.977 0 000 1.953z" fill="url(#paint0_linear)"/><path d="M33.168 27.231a.977.977 0 00-1.11.823c-.266 1.803-1.79 3.297-4.074 3.999-2.442.75-5.832.498-7.9-1.753a.977.977 0 00-1.439 1.32c1.198 1.304 2.823 2.192 4.702 2.57.664.133 1.352.2 2.045.2 1.07 0 2.15-.159 3.165-.47 3.023-.928 5.054-3.014 5.434-5.58a.977.977 0 00-.823-1.109z" fill="url(#paint1_linear)"/><path d="M46.74 18.595c-1.774-2.058-4.224-3.392-7.173-3.928 2.824-1.905 5.259-3.801 6.995-5.456 2.647-2.522 3.535-4.295 2.794-5.578-.825-1.43-3.206-1.42-7.494.031-3.622 1.226-8.136 3.354-12.707 5.994a99.11 99.11 0 00-2.338 1.393c-.568-1.603-.193-3.434 1.06-5.022.938-1.19 1.147-2.7.546-3.943C27.793.783 26.411.004 24.723 0h-.046C18.719 0 12.892 2.35 8.269 6.619 3.639 10.893.806 16.55.289 22.549c-.622 7.225 1.687 14.093 6.502 19.34C11.521 47.044 18.227 50 25.19 50c3.748 0 7.266-.686 10.457-2.038a23.533 23.533 0 007.702-5.25 23.196 23.196 0 004.764-7.127c1.074-2.517 1.66-5.186 1.697-7.716.053-3.68-1.008-6.886-3.068-9.274zM26.932 13.28a95.88 95.88 0 013.2-1.93c4.227-2.441 8.437-4.451 11.853-5.66 3.76-1.332 5.3-1.246 5.66-1.074-.032.228-.314 1.239-2.782 3.511-2.06 1.898-5.07 4.13-8.473 6.284a95.641 95.641 0 01-7.98 4.528 14.692 14.692 0 00-2.77-4.828c.424-.278.855-.556 1.292-.83zm-.291 6.525c-2.758 1.308-5.288 2.305-7.309 2.883a4.892 4.892 0 00-1.474-2.598c1.513-1.46 3.642-3.15 6.15-4.881a12.74 12.74 0 012.633 4.596zm21.216 8.036c-.14 9.718-8.845 20.206-22.667 20.206-6.416 0-12.598-2.726-16.958-7.478-4.441-4.84-6.57-11.18-5.996-17.852.986-11.45 11.054-20.764 22.442-20.764h.044c.934.002 1.643.36 1.944.983.277.573.156 1.276-.322 1.883-1.76 2.231-2.202 4.976-1.207 7.29-.524.337-1.038.676-1.535 1.012l-.007.005c-3.106 2.095-5.728 4.18-7.473 5.933a4.857 4.857 0 00-4.013.393c-2.029 1.172-4.693 6.634-5.206 7.717a.976.976 0 00.803 1.391c.54.044 2.073.155 3.779.155 2.07 0 4.395-.163 5.507-.806a4.871 4.871 0 002.33-3.193c2.394-.629 5.523-1.859 8.912-3.51a93.754 93.754 0 005.804-3.09c.991-.573 1.97-1.163 2.922-1.757l.017.001c8.14.233 10.957 6.084 10.88 11.481zm-30.381-3.977a2.926 2.926 0 01-1.46 2.354c-.924.533-4.097.605-6.702.486 1.2-2.315 2.848-5.026 3.772-5.56a2.92 2.92 0 012.823-.06 2.93 2.93 0 011.567 2.781z" fill="url(#paint2_linear)"/><path d="M17.375 6.04a3.91 3.91 0 00-3.906 3.905 3.91 3.91 0 003.906 3.907 3.91 3.91 0 003.907-3.907 3.91 3.91 0 00-3.907-3.906zm0 5.858a1.955 1.955 0 01-1.953-1.953c0-1.077.877-1.953 1.953-1.953 1.077 0 1.954.876 1.954 1.953a1.955 1.955 0 01-1.954 1.953z" fill="url(#paint3_linear)"/><path d="M12.493 32.28a3.91 3.91 0 00-3.907 3.907 3.91 3.91 0 003.907 3.906 3.91 3.91 0 003.906-3.907 3.91 3.91 0 00-3.906-3.906zm0 5.86a1.955 1.955 0 01-1.953-1.953c0-1.077.876-1.954 1.953-1.954s1.953.877 1.953 1.954a1.955 1.955 0 01-1.953 1.953z" fill="url(#paint4_linear)"/><path d="M22.258 38.14a3.91 3.91 0 00-3.906 3.906 3.91 3.91 0 003.906 3.906 3.91 3.91 0 003.907-3.906 3.91 3.91 0 00-3.907-3.906zm0 5.859a1.955 1.955 0 01-1.953-1.953c0-1.077.876-1.953 1.953-1.953s1.953.876 1.953 1.953a1.955 1.955 0 01-1.953 1.953z" fill="url(#paint5_linear)"/><path d="M33.977 36.187a3.91 3.91 0 00-3.906 3.906 3.91 3.91 0 003.906 3.906 3.91 3.91 0 003.906-3.906 3.91 3.91 0 00-3.906-3.907zm0 5.859a1.955 1.955 0 01-1.953-1.953c0-1.077.876-1.953 1.953-1.953s1.953.876 1.953 1.953a1.955 1.955 0 01-1.953 1.953z" fill="url(#paint6_linear)"/><path d="M41.79 26.42a3.91 3.91 0 00-3.907 3.907 3.91 3.91 0 003.907 3.906 3.91 3.91 0 003.906-3.906 3.91 3.91 0 00-3.906-3.906zm0 5.86a1.955 1.955 0 01-1.954-1.953c0-1.077.877-1.953 1.954-1.953s1.953.876 1.953 1.953a1.955 1.955 0 01-1.953 1.953z" fill="url(#paint7_linear)"/><defs><linearGradient id="paint0_linear" x1="32.023" y1="23.057" x2="34.054" y2="23.03" gradientUnits="userSpaceOnUse"><stop stop-color="#FCAF45"/><stop offset=".198" stop-color="#F77737"/><stop offset=".396" stop-color="#FD1D1D"/><stop offset=".594" stop-color="#C13584"/><stop offset=".797" stop-color="#833AB4"/><stop offset="1" stop-color="#405DE6"/></linearGradient><linearGradient id="paint1_linear" x1="18.388" y1="30.843" x2="34.608" y2="30.369" gradientUnits="userSpaceOnUse"><stop stop-color="#FCAF45"/><stop offset=".198" stop-color="#F77737"/><stop offset=".396" stop-color="#FD1D1D"/><stop offset=".594" stop-color="#C13584"/><stop offset=".797" stop-color="#833AB4"/><stop offset="1" stop-color="#405DE6"/></linearGradient><linearGradient id="paint2_linear" x1=".189" y1="25.269" x2="51.774" y2="24.581" gradientUnits="userSpaceOnUse"><stop stop-color="#FCAF45"/><stop offset=".198" stop-color="#F77737"/><stop offset=".396" stop-color="#FD1D1D"/><stop offset=".594" stop-color="#C13584"/><stop offset=".797" stop-color="#833AB4"/><stop offset="1" stop-color="#405DE6"/></linearGradient><linearGradient id="paint3_linear" x1="13.469" y1="9.987" x2="21.591" y2="9.878" gradientUnits="userSpaceOnUse"><stop stop-color="#FCAF45"/><stop offset=".198" stop-color="#F77737"/><stop offset=".396" stop-color="#FD1D1D"/><stop offset=".594" stop-color="#C13584"/><stop offset=".797" stop-color="#833AB4"/><stop offset="1" stop-color="#405DE6"/></linearGradient><linearGradient id="paint4_linear" x1="8.586" y1="36.228" x2="16.708" y2="36.12" gradientUnits="userSpaceOnUse"><stop stop-color="#FCAF45"/><stop offset=".198" stop-color="#F77737"/><stop offset=".396" stop-color="#FD1D1D"/><stop offset=".594" stop-color="#C13584"/><stop offset=".797" stop-color="#833AB4"/><stop offset="1" stop-color="#405DE6"/></linearGradient><linearGradient id="paint5_linear" x1="18.352" y1="42.088" x2="26.474" y2="41.979" gradientUnits="userSpaceOnUse"><stop stop-color="#FCAF45"/><stop offset=".198" stop-color="#F77737"/><stop offset=".396" stop-color="#FD1D1D"/><stop offset=".594" stop-color="#C13584"/><stop offset=".797" stop-color="#833AB4"/><stop offset="1" stop-color="#405DE6"/></linearGradient><linearGradient id="paint6_linear" x1="30.071" y1="40.135" x2="38.192" y2="40.026" gradientUnits="userSpaceOnUse"><stop stop-color="#FCAF45"/><stop offset=".198" stop-color="#F77737"/><stop offset=".396" stop-color="#FD1D1D"/><stop offset=".594" stop-color="#C13584"/><stop offset=".797" stop-color="#833AB4"/><stop offset="1" stop-color="#405DE6"/></linearGradient><linearGradient id="paint7_linear" x1="37.883" y1="30.369" x2="46.005" y2="30.26" gradientUnits="userSpaceOnUse"><stop stop-color="#FCAF45"/><stop offset=".198" stop-color="#F77737"/><stop offset=".396" stop-color="#FD1D1D"/><stop offset=".594" stop-color="#C13584"/><stop offset=".797" stop-color="#833AB4"/><stop offset="1" stop-color="#405DE6"/></linearGradient></defs></svg>