<svg width="28" height="28" viewBox="0 0 28 28" fill="none" xmlns="http://www.w3.org/2000/svg"><path d="M17.382 0h6.08c.378 0 .685.307.685.685v26.63a.685.685 0 01-.685.685h-6.08a.685.685 0 01-.685-.685V.685c0-.378.307-.685.685-.685z" fill="url(#paint0_linear)"/><path d="M4.538 0h6.08c.378 0 .685.307.685.685v26.63a.685.685 0 01-.685.685h-6.08a.685.685 0 01-.685-.685V.685c0-.378.307-.685.685-.685z" fill="url(#paint1_linear)"/><defs><linearGradient id="paint0_linear" x1="16.697" y1="14.15" x2="24.443" y2="14.123" gradientUnits="userSpaceOnUse"><stop stop-color="#FCAF45"/><stop offset=".198" stop-color="#F77737"/><stop offset=".396" stop-color="#FD1D1D"/><stop offset=".594" stop-color="#C13584"/><stop offset=".797" stop-color="#833AB4"/><stop offset="1" stop-color="#405DE6"/></linearGradient><linearGradient id="paint1_linear" x1="3.853" y1="14.15" x2="11.599" y2="14.123" gradientUnits="userSpaceOnUse"><stop stop-color="#FCAF45"/><stop offset=".198" stop-color="#F77737"/><stop offset=".396" stop-color="#FD1D1D"/><stop offset=".594" stop-color="#C13584"/><stop offset=".797" stop-color="#833AB4"/><stop offset="1" stop-color="#405DE6"/></linearGradient></defs></svg>