<svg width="20" height="20" viewBox="0 0 20 20" fill="none" xmlns="http://www.w3.org/2000/svg"><g clip-path="url(#clip0)"><path d="M14.572 2.052l-.25.25v-.25H13.09c-.556.858-1.729 1.452-3.09 1.452-1.361 0-2.534-.594-3.09-1.452H5.678v.25l-.25-.25L.997 6.485 3.42 8.911l2.258-2.259v11.296h8.643V6.653l2.258 2.259 2.424-2.427-4.431-4.433z" fill="url(#paint0_linear)"/><path d="M14.32 18.944H5.679a.997.997 0 01-.996-.996v-8.89l-.557.558a.995.995 0 01-1.41 0L.29 7.19a.997.997 0 010-1.41l4.432-4.433c.216-.216.529-.322.83-.284.041-.005.083-.008.125-.008H6.91a1 1 0 01.837.455c.392.606 1.276.997 2.253.997.976 0 1.861-.391 2.253-.997a.996.996 0 01.837-.455h1.232c.042 0 .084.003.125.008a.999.999 0 01.83.284l4.431 4.433a.997.997 0 010 1.41l-2.423 2.426a.994.994 0 01-1.41 0l-.557-.558v8.89c0 .55-.447.996-.997.996zm-7.645-1.992h6.65v-10.3a.997.997 0 011.7-.704l1.554 1.554 1.015-1.017-3.188-3.19a.993.993 0 01-.745-.247h-.086C12.752 3.955 11.435 4.5 10 4.5s-2.752-.545-3.575-1.452h-.086a.995.995 0 01-.746.247l-3.189 3.19L3.42 7.503l1.553-1.554a.995.995 0 011.701.705v10.299z" fill="url(#paint1_linear)"/></g><defs><linearGradient id="paint0_linear" x1=".997" y1="10.085" x2="19.714" y2="9.801" gradientUnits="userSpaceOnUse"><stop stop-color="#FCAF45"/><stop offset=".198" stop-color="#F77737"/><stop offset=".396" stop-color="#FD1D1D"/><stop offset=".594" stop-color="#C13584"/><stop offset=".797" stop-color="#833AB4"/><stop offset="1" stop-color="#405DE6"/></linearGradient><linearGradient id="paint1_linear" x1="0" y1="10.096" x2="20.79" y2="9.784" gradientUnits="userSpaceOnUse"><stop stop-color="#FCAF45"/><stop offset=".198" stop-color="#F77737"/><stop offset=".396" stop-color="#FD1D1D"/><stop offset=".594" stop-color="#C13584"/><stop offset=".797" stop-color="#833AB4"/><stop offset="1" stop-color="#405DE6"/></linearGradient><clipPath id="clip0"><path fill="#fff" d="M0 0h20v20H0z"/></clipPath></defs></svg>