<svg width="80" height="80" viewBox="0 0 80 80" fill="none" xmlns="http://www.w3.org/2000/svg"><path d="M79.934 20.284a1.153 1.153 0 00-.222-.427c-.03-.037-.043-.082-.078-.117L67.136 7.239c-.032-.033-.076-.045-.11-.074a1.2 1.2 0 00-.446-.229c-.043-.011-.078-.039-.123-.046L51.455 4.389c-.036-.007-.07.006-.106.003-.035-.002-.067-.02-.102-.02H28.752c-.036 0-.066.017-.1.02-.037.003-.07-.01-.107-.003l-15.003 2.5c-.045.008-.078.036-.122.047-.083.024-.16.051-.236.09a1.242 1.242 0 00-.21.139c-.034.027-.078.041-.11.074L.366 19.739c-.034.035-.047.08-.077.117a1.15 1.15 0 00-.223.428 1.264 1.264 0 00-.045.233 1.35 1.35 0 00.049.466c.025.08.059.153.1.228.022.043.027.09.056.13l8.755 12.501.005.004c.001.001.001.004.003.005.067.094.165.146.25.215.07.055.125.134.2.173a1.24 1.24 0 00.94.078c.038-.012.073-.038.11-.055.08-.033.16-.062.233-.113l.004-.004.006-.003 6.774-4.838V70.61c0 .009-.005.016-.005.025 0 .009.005.016.005.025v1.224a3.75 3.75 0 003.745 3.745h37.5a3.75 3.75 0 003.745-3.745v-42.58l6.774 4.838.006.003.004.004c.072.05.152.08.232.113.038.017.073.043.112.055a1.254 1.254 0 00.939-.078c.077-.038.13-.117.2-.172.086-.07.183-.12.25-.215.002 0 .002-.002.003-.005.001-.002.004-.002.005-.003l8.755-12.502c.028-.04.034-.087.056-.13a1.14 1.14 0 00.145-.458c.008-.08.012-.157.004-.235a1.331 1.331 0 00-.047-.235zm-10.24 11.09l-7.723-5.517c-.036-.026-.08-.03-.12-.053a1.242 1.242 0 00-.231-.104 1.274 1.274 0 00-.245-.05c-.045-.005-.084-.026-.13-.026-.035 0-.066.017-.101.02a1.232 1.232 0 00-.242.05 1.199 1.199 0 00-.226.083 1.224 1.224 0 00-.184.125 1.19 1.19 0 00-.19.18c-.023.027-.053.04-.073.067-.027.036-.032.078-.053.117a1.166 1.166 0 00-.154.479c-.005.045-.026.084-.026.13v42.511H20.005V26.875c0-.046-.023-.085-.026-.13a1.26 1.26 0 00-.05-.244 1.189 1.189 0 00-.104-.234c-.023-.038-.026-.08-.053-.117-.02-.028-.05-.041-.072-.068a1.282 1.282 0 00-.19-.178 1.285 1.285 0 00-.186-.127 1.22 1.22 0 00-.223-.082 1.27 1.27 0 00-.246-.05c-.034-.003-.064-.02-.099-.02-.046 0-.084.021-.13.026a1.171 1.171 0 00-.476.152c-.039.023-.083.027-.121.054l-7.724 5.518-7.429-10.609L14.35 9.29l13.246-2.21c.726 6.205 6.009 11.039 12.405 11.039 6.396 0 11.679-4.834 12.405-11.039l13.248 2.21 11.472 11.476-7.431 10.609zM58.75 73.13h-37.5a1.248 1.248 0 01-1.245-1.243h39.99a1.248 1.248 0 01-1.245 1.243zM30.089 6.87h19.82c-.618 4.924-4.82 8.749-9.91 8.749s-9.292-3.824-9.91-8.749z" fill="url(#paint0_linear)"/><path d="M38.75 10.621h2.5a1.25 1.25 0 100-2.5h-2.5a1.25 1.25 0 100 2.5z" fill="url(#paint1_linear)"/><path d="M54.929 47.241c.025-.081.041-.161.05-.247.004-.04.024-.077.024-.118 0-.039-.02-.074-.023-.111a1.263 1.263 0 00-.05-.244 1.284 1.284 0 00-.095-.235c-.019-.034-.021-.071-.042-.104L44.798 31.18a1.242 1.242 0 00-.81-.534c-.08-.015-.157-.001-.235-.001-.08 0-.157-.014-.235.001-.32.06-.617.241-.81.534l-4.584 6.88-2.086-3.13a1.245 1.245 0 00-.807-.533c-.078-.016-.157 0-.236 0-.079 0-.159-.016-.236 0a1.24 1.24 0 00-.806.533l-7.498 11.252c-.024.035-.026.077-.046.114a1.098 1.098 0 00-.086.213 1.236 1.236 0 00-.055.268c-.003.034-.02.064-.02.1 0 .037.018.068.02.104a1.277 1.277 0 00.136.469 1.224 1.224 0 00.31.377c.032.028.051.065.087.09.045.03.095.042.142.067a1.248 1.248 0 00.551.142h26.259c.146 0 .29-.035.43-.086.046-.018.086-.039.13-.061.045-.023.09-.034.133-.063.034-.024.053-.059.083-.082a1.358 1.358 0 00.311-.374 1.32 1.32 0 00.089-.219zm-11.176-13.12l7.665 11.505h-15.33l7.665-11.505zm-10.67 11.505H29.83l5.165-7.752 1.626 2.44-3.537 5.312z" fill="url(#paint2_linear)"/><path d="M31.25 31.871a3.755 3.755 0 003.75-3.75 3.755 3.755 0 00-3.75-3.75 3.755 3.755 0 00-3.75 3.75 3.755 3.755 0 003.75 3.75zm0-5a1.251 1.251 0 010 2.5 1.251 1.251 0 010-2.5z" fill="url(#paint3_linear)"/><defs><linearGradient id="paint0_linear" x1=".017" y1="40.384" x2="83.145" y2="39.131" gradientUnits="userSpaceOnUse"><stop stop-color="#FCAF45"/><stop offset=".198" stop-color="#F77737"/><stop offset=".396" stop-color="#FD1D1D"/><stop offset=".594" stop-color="#C13584"/><stop offset=".797" stop-color="#833AB4"/><stop offset="1" stop-color="#405DE6"/></linearGradient><linearGradient id="paint1_linear" x1="37.5" y1="9.385" x2="42.695" y2="9.245" gradientUnits="userSpaceOnUse"><stop stop-color="#FCAF45"/><stop offset=".198" stop-color="#F77737"/><stop offset=".396" stop-color="#FD1D1D"/><stop offset=".594" stop-color="#C13584"/><stop offset=".797" stop-color="#833AB4"/><stop offset="1" stop-color="#405DE6"/></linearGradient><linearGradient id="paint2_linear" x1="26.248" y1="39.477" x2="56.131" y2="38.817" gradientUnits="userSpaceOnUse"><stop stop-color="#FCAF45"/><stop offset=".198" stop-color="#F77737"/><stop offset=".396" stop-color="#FD1D1D"/><stop offset=".594" stop-color="#C13584"/><stop offset=".797" stop-color="#833AB4"/><stop offset="1" stop-color="#405DE6"/></linearGradient><linearGradient id="paint3_linear" x1="27.5" y1="28.161" x2="35.297" y2="28.057" gradientUnits="userSpaceOnUse"><stop stop-color="#FCAF45"/><stop offset=".198" stop-color="#F77737"/><stop offset=".396" stop-color="#FD1D1D"/><stop offset=".594" stop-color="#C13584"/><stop offset=".797" stop-color="#833AB4"/><stop offset="1" stop-color="#405DE6"/></linearGradient></defs></svg>